<svg fill="rgb(109, 116, 112)" xmlns="http://www.w3.org/2000/svg" viewBox="0 0 488.4 488.4" aria-labelledby="title"><title>trio de empresários</title><path d="M243.8 241.113h.8c64.1-.7 54.8-86.3 54.8-86.3-2.6-57.2-50.5-56.7-55.2-56.5-4.7-.2-52.5-.7-55.2 56.5 0 .1-9.3 85.7 54.8 86.3zM393.8 270.313h.6c51.5-.5 44.1-69.4 44.1-69.4-2.1-46-40.6-45.6-44.4-45.5-3.8-.2-42.3-.5-44.4 45.5 0 .1-7.5 68.9 44.1 69.4zM488.3 340.113c-.4-14.8-3.3-25.1-18.4-34.6-20.1-12.6-42.6-23.5-42.6-23.5l-17.9 56.6-10.4-29.7c18.3-25.6-1.3-26.9-4.8-26.9h-.2c-3.5 0-23.1 1.3-4.8 26.9l-10.4 29.6-17.9-56.6s-6.4 3.1-15.4 7.9c-2.1-1.7-4.4-3.4-7-5-25-15.7-52.9-29.3-52.9-29.3l-22.2 70.3-13-36.9c22.8-31.8-1.6-33.4-6-33.5h-.2c-4.4 0-28.8 1.6-6 33.5l-13 36.9-22.2-70.3s-27.9 13.6-52.9 29.3c-2.7 1.7-5 3.4-7.1 5.1-9.1-4.9-15.6-8-15.6-8l-17.9 56.6-10.4-29.6c18.3-25.6-1.3-26.9-4.8-26.9h-.2c-3.5 0-23.1 1.3-4.8 26.9l-10.4 29.6-17.9-56.6s-22.5 10.9-42.6 23.5c-15.2 9.5-18 19.8-18.4 34.6v50.1h488.4l-.1-50zM93.6 270.313h.6c51.6-.5 44.1-69.4 44.1-69.4-2.1-46-40.6-45.6-44.4-45.5-3.8-.2-42.3-.5-44.4 45.5 0 .1-7.4 68.9 44.1 69.4z"></path></svg>