<svg fill="rgb(109, 116, 112)" xmlns="http://www.w3.org/2000/svg" viewBox="0 0 946 946" aria-labelledby="title"><title>calculadora e moeda com cifrão</title><path d="M403.85 538.6V440.4h98.3v37.7c20.299-17.5 42.9-31.9 67.299-43v-400c0-19.4-15.699-35.1-35.1-35.1h-493c-19.4 0-35.1 15.7-35.1 35.1v716.3c0 19.4 15.7 35.1 35.1 35.1h378c-10.5-30-15.9-61.4-15.9-93.6 0-4.801.101-9.6.4-14.4V538.6zm98.3-159.5h-98.3v-98.3h98.3v98.3zm-330.3 319.099h-98.3V599.9h98.3v98.299zm0-159.599h-98.3v-98.3h98.3v98.3zm0-159.5h-98.3v-98.3h98.3v98.3zm165.1 319.099h-98.3V599.9h98.3v98.299zm0-159.599h-98.3v-98.3h98.3v98.3zm0-159.5h-98.3v-98.3h98.3v98.3zM73.55 199.7v-127h428.6v127H73.55z"></path><path d="M451.45 786.5c37.2 93.4 128.499 159.5 235.2 159.5 139.799 0 253.1-113.301 253.1-253.1 0-139.801-113.301-253.201-253.1-253.201-42.301 0-82.201 10.4-117.201 28.7-25.199 13.2-48 30.5-67.299 51.1-42.5 45.301-68.6 106.199-68.6 173.301 0 1.799 0 3.5.1 5.299.6 31.202 6.8 61.001 17.8 88.401zm282.4-58.199c-10.199-12.5-27.699-17.801-43.4-21.4-19.5-4.4-37.1-8.9-54.699-18.701-11.301-6.299-20.199-15.199-26.301-26.398-6.1-11.102-9.199-23.9-9.199-38 0-25.102 9-45.701 26.801-61.201 10.5-9.199 24.898-15.6 41.199-18.6v-13.699c0-9.201 7.5-16.701 16.699-16.701h9.102c9.199 0 16.699 7.5 16.699 16.701V544.1c15.1 2.9 28.5 8.801 38.6 17.201 10.701 8.898 18.5 20.1 23.301 33.5 3.6 9.898-2.9 20.5-13.301 22.1l-8.799 1.299c-8 1.201-15.701-3.5-18.301-11.199-2.1-6.199-5-11.4-8.5-15.4-8-8.9-20.6-14.1-34.5-14.1-14.801 0-28.801 5.801-37.5 15.5-7.1 7.9-10.5 17.1-10.5 28 0 10.699 3 19.699 8.9 26.801 12.299 14.799 32.5 18.898 52 22.799 11.4 2.301 23.199 4.701 33.4 9.201 10.898 4.799 19.898 10.799 26.898 17.699 7 7 12.4 15.4 16.102 24.9 3.699 9.5 5.6 20 5.6 31 0 24.299-7.9 44.9-23.4 61.199-12.699 13.4-30.1 22.201-50 25.801v10.1c0 9.199-7.5 16.699-16.699 16.699h-9.102c-9.199 0-16.699-7.5-16.699-16.699v-10.4c-11-2.1-21.5-5.6-30.9-10.5-11.1-5.699-20.799-15-28.9-27.699-5.398-8.4-9.199-18.201-11.6-29.201-2-9.199 4.201-18.299 13.5-19.898l9-1.602c8.6-1.5 16.9 3.9 19.1 12.4 2.602 10 6 17.801 10.301 23.301 9.6 12.299 25.4 19.699 42.4 19.699 2.9 0 5.799-.199 8.6-.6 12.1-1.801 23-7.6 30.5-16.199 8-9.102 12-20.5 12-34-.102-11.501-2.902-20.702-8.402-27.501z"></path></svg>