<svg fill="rgb(109, 116, 112)" xmlns="http://www.w3.org/2000/svg" viewBox="0 0 60 60" aria-labelledby="title"><title>contabilidade</title><path d="M59 20H29c-.6 0-1 .4-1 1v38c0 .6.4 1 1 1h30c.6 0 1-.4 1-1V21c0-.6-.4-1-1-1zm-1 2v6H30v-2h12v-2H30v-2h28zM30 58V30h28v28H30z"></path><path d="M35 32h3v2h-3zM40 32h3v2h-3zM45 32h3v2h-3zM50 32h3v2h-3zM33 37h4v2h-4zM39 37h4v2h-4zM45 37h4v2h-4zM51 37h4v2h-4zM33 41h4v2h-4zM39 41h4v2h-4zM45 41h4v2h-4zM51 41h4v2h-4zM33 45h4v2h-4zM39 45h4v2h-4zM45 45h4v2h-4zM51 45h4v2h-4zM33 49h4v2h-4zM39 49h4v2h-4zM45 49h4v2h-4zM51 49h4v2h-4zM33 53h4v2h-4zM39 53h4v2h-4zM45 53h4v2h-4zM51 53h4v2h-4zM2 14h11c.6 0 1-.4 1-1V2h34v14h2V1c0-.6-.4-1-1-1H13c-.1 0-.2 0-.3.1h-.1c-.1.1-.2.1-.3.2l-12 12c-.1.1-.1.2-.2.3v.1c0 .1-.1.2-.1.3v11h2V14zm10-2H3.4l4.3-4.3L12 3.4V12zM25 43H14V29c0-.6-.4-1-1-1H1c-.6 0-1 .4-1 1v30c0 .6.4 1 1 1h24c.6 0 1-.4 1-1V44c0-.6-.4-1-1-1zM2 45h10v3H2v-3zm10-2H2v-3h10v3zm0-5H2v-3h10v3zM2 50h10v3H2v-3zm12 0h10v3H14v-3zm10-2H14v-3h10v3zM2 30h10v3H2v-3zm0 25h10v3H2v-3zm22 3H14v-3h10v3z"></path><path d="M38 5h7v2h-7zM27 10h18v2H27zM44 24h3v2h-3z"></path></svg>