<svg xmlns="http://www.w3.org/2000/svg" xml:space="preserve" version="1.0" style="shape-rendering:geometricPrecision; text-rendering:geometricPrecision; image-rendering:optimizeQuality; fill-rule:evenodd; clip-rule:evenodd"
viewBox="0 0 4064 4064"
 xmlns:xlink="http://www.w3.org/1999/xlink">
 <g id="Camada_x0020_1">
  <metadata id="CorelCorpID_0Corel-Layer"/>
  <path class="fil0" d="M3574 3743l-2129 0c-99,0 -169,-63 -169,-152l0 -2163c0,-82 70,-152 152,-152l2163 0c89,0 152,70 152,169l0 2129c0,105 -64,169 -169,169zm-3574 -3177l0 1986c0,256 85,429 296,523 107,49 222,43 346,43l0 -330 -186 0c-57,0 -126,-70 -126,-127l0 -2205c0,-57 69,-126 126,-126l2205 0c57,0 127,69 127,126l0 178 330 0c0,-227 -5,-347 -150,-493 -103,-103 -216,-141 -416,-141l-1986 0c-374,0 -566,192 -566,566zm955 853l0 2180c0,245 219,465 464,465l2180 0c245,0 465,-220 465,-465l0 -2180c0,-245 -220,-464 -465,-464l-2180 0c-245,0 -464,219 -464,464z"/>
 </g>
</svg>
