<?xml version="1.0" encoding="UTF-8"?>
<!DOCTYPE svg PUBLIC "-//W3C//DTD SVG 1.1//EN" "http://www.w3.org/Graphics/SVG/1.1/DTD/svg11.dtd">
<!-- Creator: CorelDRAW X8 -->
<svg xmlns="http://www.w3.org/2000/svg" xml:space="preserve" width="110.082mm" height="28.1832mm" version="1.1" style="shape-rendering:geometricPrecision; text-rendering:geometricPrecision; image-rendering:optimizeQuality; fill-rule:evenodd; clip-rule:evenodd"
viewBox="0 0 10678 2734"
 xmlns:xlink="http://www.w3.org/1999/xlink">
 <defs>
  <style type="text/css">
   <![CDATA[
    .fil1 {fill:#004BB5}
    .fil0 {fill:#F6BE00}
   ]]>
  </style>
 </defs>
 <g id="Camada_x0020_1">
  <metadata id="CorelCorpID_0Corel-Layer"/>
  <g id="_2346967721536">
   <path class="fil0" d="M9017 1995c0,354 601,237 601,429 0,175 -298,146 -515,0 -60,89 -86,64 -115,172 830,439 1131,-310 602,-459 -108,-30 -344,-47 -344,-171 0,-180 293,-90 343,-86 0,-220 26,-200 -257,-200 -169,0 -315,137 -315,315z"/>
   <path class="fil0" d="M1946 0l1618 0c-2,99 -15,200 -64,288 -100,183 -285,304 -479,368 44,-98 75,-201 83,-308 -330,-4 -661,-1 -991,-2 -126,2 -254,-7 -378,20 -337,65 -633,257 -883,484 -238,216 -438,470 -620,734 -80,119 -152,243 -232,363 40,-131 101,-253 159,-377 100,-205 212,-405 344,-592 179,-261 393,-501 652,-684 236,-158 508,-266 791,-294z"/>
   <path class="fil0" d="M2812 714c61,-15 121,-32 183,-42 -134,170 -349,248 -554,294 -98,24 -198,41 -299,42 22,-76 41,-154 51,-232 207,-10 416,-14 619,-62z"/>
   <path class="fil1" d="M1518 1021c205,4 412,10 617,-8 -60,127 -178,217 -311,260 -159,56 -332,64 -499,62 -240,-2 -481,47 -695,155 -192,94 -357,234 -504,387 191,-318 456,-609 805,-753 184,-77 387,-108 587,-103z"/>
   <path class="fil1" d="M5756 1865c58,-84 114,-171 173,-256 65,28 131,55 196,84 -67,55 -124,124 -197,171 -57,6 -115,2 -172,1zm-195 215c142,-152 401,-165 566,-41 111,89 144,241 131,378 -194,0 -387,-1 -581,1 20,49 48,98 96,123 82,44 180,27 267,7 -4,54 11,115 -10,166 -146,34 -316,32 -438,-66 -172,-132 -184,-417 -31,-568zm207 74c63,-32 146,-32 207,6 43,27 59,79 77,124 -125,3 -250,3 -375,1 17,-51 40,-106 91,-131z"/>
   <path class="fil1" d="M1000 1700c261,-1 523,-1 784,0 4,67 4,133 3,200 -182,1 -363,0 -544,1 -2,66 -2,132 -1,198 146,2 291,-1 437,1 -1,68 -1,135 -1,203 -145,0 -290,-1 -436,0 -1,138 -1,275 0,413 -81,1 -163,0 -244,0 -2,-339 -5,-678 2,-1016z"/>
   <path class="fil1" d="M7458 1699c80,0 160,0 241,0 -1,54 -1,109 0,163 -81,2 -161,1 -242,1 1,-55 1,-109 1,-164z"/>
   <path class="fil0" d="M9906 1699c255,-1 509,0 764,0 0,51 0,102 1,153 -189,2 -377,-1 -565,1 -1,89 0,178 0,268 151,2 302,-1 453,2 1,52 2,104 2,156 -152,3 -304,0 -456,1 1,91 1,182 1,273 191,2 382,0 572,1l0 159c-258,-1 -517,2 -776,-1 2,-338 -5,-676 4,-1013z"/>
   <path class="fil1" d="M6409 2066c99,-104 254,-131 391,-114 1,54 2,109 -2,163 -70,5 -149,14 -200,68 -23,36 -22,80 -22,121 2,137 0,275 1,412 -83,2 -167,1 -250,0 2,-147 0,-294 1,-441 -2,-77 27,-155 81,-209z"/>
   <path class="fil1" d="M1833 2113c135,-181 426,-210 599,-69 109,90 139,239 129,373 -194,1 -388,-2 -582,2 18,48 46,96 93,120 83,47 182,28 269,10 1,54 1,109 1,163 -144,33 -309,37 -435,-53 -171,-118 -198,-383 -74,-546zm273 25c58,-11 127,-12 176,27 40,28 55,75 70,119 -125,3 -250,3 -375,0 22,-63 60,-128 129,-146z"/>
   <path class="fil1" d="M2804 2029c111,-70 247,-80 375,-69 1,53 1,106 1,160 -97,-7 -205,12 -272,89 -68,69 -72,188 -8,261 66,83 179,107 280,98 0,54 0,108 -2,162 -119,8 -246,9 -354,-53 -138,-68 -228,-226 -202,-380 11,-113 87,-211 182,-268z"/>
   <path class="fil1" d="M3516 1964c202,-51 437,70 493,275 60,181 -51,385 -223,457 -146,67 -330,41 -450,-68 -99,-85 -150,-223 -125,-353 26,-153 155,-276 305,-311zm31 172c66,-12 149,-17 197,40 48,56 46,135 43,204 -1,59 -20,125 -74,156 -69,36 -162,34 -222,-18 -57,-60 -52,-150 -48,-227 2,-65 37,-135 104,-155z"/>
   <path class="fil1" d="M4246 2015c152,-89 354,-80 500,18 137,-93 322,-103 471,-35 110,52 177,172 179,291 2,143 1,285 1,428 -80,0 -160,0 -240,0 0,-128 0,-255 0,-383 1,-58 -9,-123 -55,-163 -34,-35 -87,-28 -131,-25 -65,11 -98,83 -99,143 -2,143 -2,287 0,430 -84,0 -167,1 -251,-1 0,-143 1,-286 0,-428 1,-56 -27,-112 -77,-139 -55,-11 -123,-17 -164,28 -36,43 -45,101 -44,155 0,128 0,255 1,383 -81,0 -161,0 -242,0 0,-138 0,-275 0,-413 0,-112 50,-232 151,-289z"/>
   <path class="fil1" d="M6979 2026c111,-66 245,-78 372,-66 2,53 1,107 1,160 -76,-4 -155,2 -220,45 -66,41 -116,118 -106,197 7,83 70,152 145,182 56,28 120,25 181,25 0,53 1,106 -1,160 -118,9 -243,12 -349,-48 -122,-63 -216,-191 -212,-332 -6,-132 74,-259 189,-323z"/>
   <path class="fil1" d="M8066 1966c176,-46 379,34 466,195 68,120 61,277 -17,390 -108,171 -350,228 -528,141 -130,-62 -227,-196 -229,-342 -4,-180 134,-346 308,-384zm32 171c69,-14 158,-18 205,44 46,61 39,142 37,214 -1,68 -41,149 -117,157 -57,3 -126,14 -171,-29 -60,-55 -58,-144 -56,-219 1,-68 32,-145 102,-167z"/>
   <path class="fil1" d="M7458 2716c1,-248 -2,-496 1,-745 80,2 160,0 240,2 -1,248 -1,496 0,744 -81,0 -161,0 -241,-1z"/>
  </g>
 </g>
</svg>