<svg fill="rgb(109, 116, 112)" xmlns="http://www.w3.org/2000/svg" viewBox="0 0 901 901" aria-labelledby="title"><title>gráfico de linha ascendente</title><path d="M900.5 851c0-27.6-22.4-50-50-50h-750V50c0-27.6-22.4-50-50-50S.5 22.4.5 50v751c0 55.1 44.9 100 100 100h750c27.6 0 50-22.4 50-50z"></path><path d="M329.3 416.7L149 649.1c-8.5 10.9-6.5 26.601 4.4 35.101l39.5 30.7c10.9 8.5 26.6 6.5 35.1-4.4l153.899-198.3c8.4-10.9 21-17.8 34.7-19.101l170.3-16.5c13.2-1.3 25.4-7.699 33.801-18l174.6-212.2 42 34.8c16 13.2 40.2 2.4 40.9-18.4l6.1-170.7c.6-16.1-14.1-28.6-29.9-25.4l-170.7 34.4c-20.601 4.1-27.2 30.3-11 43.8l45.6 37.8L569.7 363c-8.4 10.2-20.601 16.7-33.801 18l-172 16.6C350.3 399 337.7 405.9 329.3 416.7z"></path></svg>