<svg fill="rgb(109, 116, 112)" xmlns="http://www.w3.org/2000/svg" viewBox="0 0 60 60" aria-labelledby="title"><title>gráfico de barra com seta descendente</title><path d="M59 54.878h-1v-14H46v14h-3v-23H31v23h-3v-31H16v31h-3v-39H1v39a1 1 0 1 0 0 2h58a1 1 0 1 0 0-2zm-56 0v-37h8v37H3zm15 0v-29h8v29h-8zm15 0v-21h8v21h-8zm15 0v-12h8v12h-8zM11.781 4.989l36.269 20.94-5.457.529a1 1 0 1 0 .194 1.99l8.563-.83c.016-.001.029-.011.044-.014a.98.98 0 0 0 .23-.062c.014-.006.029-.003.043-.009.01-.005.016-.014.026-.019l.009-.004c.011-.006.024-.008.035-.014a.974.974 0 0 0 .236-.185l.032-.037c.018-.02.03-.042.046-.064.022-.03.05-.056.069-.089.014-.024.014-.051.026-.076.016-.034.037-.065.049-.101.013-.037.014-.075.023-.114.012-.055.021-.107.024-.162.002-.038.007-.073.004-.111-.001-.012.005-.022.003-.034-.003-.028-.018-.05-.023-.077a.902.902 0 0 0-.044-.162c-.009-.026-.007-.052-.018-.078l-3.563-7.83a1 1 0 1 0-1.82.828l2.27 4.99-36.27-20.938a1 1 0 0 0-1 1.733z"></path></svg>