<svg fill="rgb(109, 116, 112)" xmlns="http://www.w3.org/2000/svg" viewBox="0 0 295.239 295.239" aria-labelledby="title"><title>link</title><path d="M291.903 51.42L243.809 3.326c-4.422-4.422-11.61-4.422-16.031 0L139.594 91.51c-4.422 4.422-4.422 11.61 0 16.031l8.004 8.004 88.206-88.184 32.063 32.063-88.184 88.184 8.027 8.027c4.422 4.422 11.61 4.422 16.031 0l88.184-88.184c4.422-4.421 4.422-11.609-.022-16.031zM139.548 171.621l47.958-47.981c4.422-4.422 4.422-11.61 0-16.031-4.422-4.422-11.61-4.422-16.031 0l-47.981 47.981-15.963-15.986c-4.422-4.422-11.61-4.422-16.031 0L3.316 227.787c-4.422 4.422-4.422 11.61 0 16.031l48.094 48.094c4.422 4.422 11.61 4.422 16.031 0l88.184-88.184c4.422-4.422 4.422-11.61 0-16.031l-16.077-16.076zm-80.133 96.256l-32.063-32.063 88.184-88.206 7.959 7.959-16.145 16.167c-4.422 4.422-4.422 11.61 0 16.031 4.422 4.422 11.61 4.422 16.031 0l16.167-16.167 8.05 8.095-88.183 88.184z"></path></svg>