<svg fill="rgb(109, 116, 112)" xmlns="http://www.w3.org/2000/svg" viewBox="0 0 512 512" aria-labelledby="title"><title>lupa com cifrão</title><path d="M240.5 185.7c-10.4-8.5-26-14.8-46.9-20.1h-1v-52.9c14.6 2.1 27.1 7.4 39.6 15.9l17.7-25.4C232.2 90.4 212.4 83 192.6 82V67.2h-17.7v12.7c-17.7 1.1-32.3 6.3-43.8 16.9s-16.7 24.3-16.7 40.2c0 16.9 5.2 28.6 14.6 37 9.4 8.5 25 14.8 45.8 20.1v55c-16.7-2.1-32.3-10.6-47.9-24.3l-19.8 24.3c19.8 18 42.7 28.6 67.7 30.7v20.1h17.7v-20.1c18.8-1.1 34.4-6.3 45.8-16.9 11.5-10.6 16.7-24.3 16.7-40.2s-4.1-28.6-14.5-37zm-66.7-25.4c-10.4-3.2-16.7-7.4-20.8-10.6-3.1-3.2-5.2-8.5-5.2-14.8 0-6.3 2.1-11.6 7.3-15.9 4.2-4.2 11.5-7.4 18.8-7.4v48.7zm39.5 81.4c-5.2 4.2-12.5 7.4-21.9 8.5v-50.8c11.5 3.2 18.8 6.3 22.9 10.6 4.2 4.2 6.3 9.5 6.3 15.9 0 6.3-2.1 11.6-7.3 15.8z"></path><path d="M488.4 425.8L377 312.6l-24 24.3-42.7-43.3c24.7-29.9 39.5-68.4 39.5-110.4 0-95-75.9-172-169.4-172S11 88.2 11 183.2s75.9 172 169.4 172c44.7 0 85.3-17.6 115.6-46.2l42.3 42.9-22.8 23.1 110.4 113.2c20.5 21.6 51.7 12 62.5 1.1 11-11.7 21.9-42.1 0-63.5zM180.5 334c-82.1 0-148.6-67.5-148.6-150.9S98.4 32.3 180.5 32.3s148.6 67.5 148.6 150.9S262.5 334 180.5 334zm292.3 139.4c-8.3 8.5-24 8.5-32.3 0L343.6 375l32.3-33.9 96.9 98.4c14.8 12.8 4.2 29.7 0 33.9z"></path></svg>