<svg xmlns="http://www.w3.org/2000/svg" xml:space="preserve" version="1.1" style="shape-rendering:geometricPrecision; text-rendering:geometricPrecision; image-rendering:optimizeQuality; fill-rule:evenodd; clip-rule:evenodd"
viewBox="0 0 11316 9050"
 xmlns:xlink="http://www.w3.org/1999/xlink">
 <g id="Camada_x0020_1">
  <metadata id="CorelCorpID_0Corel-Layer"/>
  <path d="M685 5107l9949 0c909,0 909,-1164 0,-1164l-9949 0c-209,0 -368,50 -484,151 -358,312 -239,1013 484,1013zm-80 3943l5028 0c493,0 797,-546 455,-958 -73,-88 -220,-180 -376,-180l-5186 0c-290,0 -553,305 -524,602 28,292 267,536 603,536zm-79 -7912l7436 0c281,0 529,-263 529,-582 0,-288 -268,-556 -556,-556l-7330 0c-812,0 -747,1138 -79,1138z"/>
 </g>
</svg>
