<svg fill="rgb(109, 116, 112)" xmlns="http://www.w3.org/2000/svg" viewBox="0 0 489.17 489.17" aria-labelledby="title"><title>empresária e seta ascendente com cifrão</title><path d="M257.257 281.27l19.4 57.2-27.1-2.1-19.1 23.5 4.2 4.2 46.3 46.3 33.1-33.1 13.1-13.1 5.3-5.3 20-20c-5.5-9.2-13.6-16.7-23.4-21.6l-61.4-30.3c-3.5-1.8-6.9-3.7-10.4-5.7zM130.157 336.37l-27.1 2.1 19.8-57.2-12.3 6.3-59.9 29.6c-16 7.9-27.4 22.9-30.6 40.5l-9.8 54.2c-.7 4 2.3 7.7 6.4 7.7h71.8l60.3-60.3-18.6-22.9zM340.457 226.87c7 3.4 14.5 5.1 22.2 6.4 6 .9 6.2 1.2 6.2 7.4 0 2.8 0 5.6.1 8.5 0 3.6 1.8 5.6 5.4 5.7 4.1.1 8.3.1 12.5 0 3.4-.1 5.1-1.9 5.2-5.4 0-3.9.2-7.7 0-11.6-.2-3.9 1.5-5.9 5.3-6.9 8.7-2.4 16.1-7 21.8-14 15.8-19.2 9.7-47.3-12.6-59.7-7-3.9-14.5-6.8-21.9-9.9-4.3-1.8-8.4-3.9-12-6.7-7.1-5.7-5.8-14.9 2.6-18.6 2.3-1 4.8-1.4 7.4-1.5 9.7-.5 18.9 1.2 27.6 5.5 4.4 2.1 5.8 1.4 7.3-3.1 1.6-4.8 2.9-9.7 4.3-14.5.9-3.3-.2-5.4-3.3-6.8-5.6-2.5-11.4-4.3-17.4-5.2-7.9-1.2-7.9-1.3-7.9-9.2 0-11.2 0-11.2-11.3-11.2h-4.9c-5.2.2-6.1 1.1-6.3 6.3-.1 2.4 0 4.7 0 7.1 0 7-.1 6.9-6.8 9.4-16.3 5.9-26.3 17-27.4 34.7-1 15.7 7.2 26.3 20.1 34 7.9 4.8 16.7 7.6 25.1 11.3 3.3 1.4 6.4 3.1 9.2 5.4 8.1 6.7 6.6 17.8-3 22-5.1 2.2-10.6 2.8-16.1 2.1-8.6-1.1-16.8-3.3-24.6-7.4-4.5-2.4-5.9-1.7-7.4 3.2-1.3 4.2-2.5 8.5-3.7 12.8-1.8 5.9-1.2 7.3 4.3 9.9z"></path><path d="M141.057 249.37v18.1l25.7 75c6.6-4.4 14.4-6.8 22.5-6.8 8.5 0 16.7 2.6 23.5 7.5l25.8-75.3-.1-1.3v-17.6s55.6 1.7 82-25.2c0 0-38.4-10.9-31.5-80.8s-8.6-131.2-64.8-126c0 0-24.3-29.3-72.8-10.9-16.6 6.3-61.3 22.3-59 119.1s-34.4 97.4-34.4 97.4 18.9 27.3 83.1 26.8zM470.557 273.87h-1c-21.7 1-43.4 2-65.1 3.1-3.4.2-6.7.3-8.6 4.4-1.9 4 .3 6.3 2.6 8.6 6.7 6.7 13.2 13.4 20 20l-7.4 7.4-60 60-5.3 5.3-13.1 13.1-51.7 51.7-3-3-61.8-61.8-13.2-13.2-3.6-3.6c-2.8-2.8-6.5-4.2-10.1-4.2-3.7 0-7.3 1.4-10.1 4.2l-3.5 3.6-75 75c-5.6 5.6-5.6 14.7 0 20.2l3.6 3.6c2.8 2.8 6.5 4.2 10.1 4.2 3.7 0 7.3-1.4 10.1-4.2l64.8-64.8 3 3 61.8 61.8 13.1 13.1 3.6 3.6c2.8 2.8 6.5 4.2 10.1 4.2 3.7 0 7.3-1.4 10.1-4.2l3.6-3.6 61.8-61.8 13.1-13.1 5.3-5.3 60-60 7.3-7.3 19.6 19.4c1.8 1.8 3.6 3.8 6.2 3.8 1 0 2-.3 3.2-.9 3.9-2.1 4.8-5.5 4.9-9.4.9-21.2 2-42.3 3-63.5.5-6.5-2.2-9.4-8.4-9.4z"></path></svg>