<svg fill="rgb(109, 116, 112)" xmlns="http://www.w3.org/2000/svg" viewBox="0 0 488.413 488.413" aria-labelledby="title"><title>grupo de empresários</title><path d="M138.515 168.213h.4c35.9-.4 30.7-48.3 30.7-48.3-1.5-32.1-28.3-31.8-30.9-31.7-2.6-.1-29.5-.4-30.9 31.7-.1-.1-5.3 47.9 30.7 48.3zM213.715 119.813s-5.2 48 30.7 48.3h.4c35.9-.4 30.7-48.3 30.7-48.3-1.5-32.1-28.3-31.8-30.9-31.7-2.6 0-29.4-.3-30.9 31.7zM319.615 119.813s-5.2 48 30.7 48.3h.4c35.9-.4 30.7-48.3 30.7-48.3-1.5-32.1-28.3-31.8-30.9-31.7-2.6 0-29.4-.3-30.9 31.7zM411.615 200.813c-3.1-3.1-4.7-4.6-8.2-7.2-13.3-9.8-29.7-16.4-29.7-16.4l-12.5 39.4-7.3-20.7c13.1-18.2-1.5-18.8-3.5-18.8s-16.6.5-3.5 18.8l-7.3 20.7-12.5-39.4s-16.3 6.6-29.7 16.4h-.1-.1c-13.3-9.8-29.7-16.4-29.7-16.4l-12.5 39.4-7.3-20.7c13.1-18.2-1.5-18.8-3.5-18.8s-16.6.5-3.5 18.8l-7.3 20.7-12.5-39.4s-16.3 6.6-29.7 16.4h-.1-.1c-13.3-9.8-29.7-16.4-29.7-16.4l-12.5 39.4-7.3-20.7c13.1-18.2-1.5-18.8-3.5-18.8s-16.6.5-3.5 18.8l-7.3 20.7-12.5-39.4s-16.3 6.6-29.7 16.4c-3.5 2.6-5.1 4.1-8.2 7.2-7.4 7.4-4.3 50.1 0 65.8s16.8 38.1 16.8 38.1c2.5 5.7 4.1 11.8 4.7 18l16 156.9c.5 5 4.7 8.8 9.7 8.8h27.6c5 0 9.2-3.8 9.7-8.8l16-156.9c.6-6.2 2.2-12.3 4.7-18 0 0 4.3-7.6 8.7-17.1 4.4 9.5 8.7 17.1 8.7 17.1 2.5 5.7 4.1 11.8 4.7 18l16 156.9c.5 5 4.7 8.8 9.7 8.8h28.6c5 0 9.2-3.8 9.7-8.8l16-156.9c.6-6.2 2.2-12.3 4.7-18 0 0 4.3-7.6 8.7-17.1 4.4 9.5 8.7 17.1 8.7 17.1 2.5 5.7 4.1 11.8 4.7 18l16 156.9c.5 5 4.7 8.8 9.7 8.8h27.6c5 0 9.2-3.8 9.7-8.8l16-156.9c.6-6.2 2.2-12.3 4.7-18 0 0 12.5-22.4 16.8-38.1 4.5-15.7 7.6-58.5.2-65.8zM191.815 80.013h.4c35.9-.4 30.7-48.3 30.7-48.3-1.5-32.1-28.3-31.8-30.9-31.7-2.6-.1-29.5-.4-30.9 31.7 0 0-5.2 48 30.7 48.3zM297.815 80.013h.4c35.9-.4 30.7-48.3 30.7-48.3-1.5-32.1-28.3-31.8-30.9-31.7-2.6-.1-29.5-.4-30.9 31.7-.1 0-5.3 48 30.7 48.3z"></path></svg>