<svg fill="rgb(109, 116, 112)" xmlns="http://www.w3.org/2000/svg" viewBox="0 0 792 792" aria-labelledby="title"><title>silhueta de empresário</title><path d="M395.788 304.152c42.027 0 77.984-14.733 107.885-44.625 29.893-29.901 44.625-65.857 44.625-107.885 0-42.028-14.844-77.448-44.625-107.016C473.669 14.835 437.815 0 395.788 0 353.76 0 318.34 14.835 288.337 44.625c-29.791 29.568-44.625 64.988-44.625 107.016 0 42.028 14.733 77.983 44.625 107.885 29.892 29.892 65.423 44.626 107.451 44.626zM322.564 78.418c20.362-20.362 45.06-30.761 73.224-30.761 29.023 0 53.285 10.398 73.658 30.761 20.361 20.362 30.76 45.06 30.76 73.224 0 29.032-10.398 53.721-30.76 74.092-20.373 20.362-44.635 30.326-73.658 30.326-28.164 0-52.861-9.964-73.224-30.326-20.362-20.372-30.761-45.06-30.761-74.092.001-28.164 10.399-52.862 30.761-73.224zM645.776 538.546v-10.832c0-104.438-93.559-196.702-197.996-196.702H345.958c-53.748 0-100.083 21.666-138.636 59.359-38.562 37.693-61.966 83.557-61.966 137.343V740.008c0 29.467 22.969 51.992 52.427 51.992h396.435c14.299 0 26.758-5.306 36.834-15.158 10.287-10.075 15.592-22.101 15.592-36.834V538.546c0 32.924-.868 32.489-.868 0zm-51.558 205.797H197.783c-3.032 0-4.326-1.294-4.326-4.335V537.678c0-41.594 14.179-77.66 42.888-108.319 28.912-30.862 64.128-47.657 105.288-50.689l35.086 46.363-38.127 229.625 57.196 64.988 57.621-64.988-38.127-229.625 35.096-46.363c39.855 3.032 73.658 19.068 101.82 47.657 28.154 28.599 45.486 62.77 45.486 103.116v9.103l.869 201.462c.009 3.041-1.304 4.335-4.335 4.335z"></path></svg>