<svg fill="rgb(109, 116, 112)" xmlns="http://www.w3.org/2000/svg" viewBox="0 0 463 463" aria-labelledby="title"><title>empresário e relógio</title><path d="M283.5 127h9.734a23.54 23.54 0 0 0 1.219 2.939l-13.11 13.11a7.5 7.5 0 0 0 10.606 10.607l13.111-13.111a23.343 23.343 0 0 0 10.439 2.454c10.336 0 19.128-6.71 22.266-16H371.5c4.142 0 7.5-3.357 7.5-7.5s-3.358-7.5-7.5-7.5h-33.734a23.333 23.333 0 0 0-1.22-2.939l40.258-40.257a7.5 7.5 0 0 0-10.606-10.607L325.94 98.454A23.367 23.367 0 0 0 315.5 96c-10.336 0-19.128 6.71-22.266 16H283.5c-4.142 0-7.5 3.357-7.5 7.5s3.358 7.5 7.5 7.5zm32-16c4.687 0 8.5 3.813 8.5 8.5s-3.813 8.5-8.5 8.5-8.5-3.813-8.5-8.5 3.813-8.5 8.5-8.5z"></path><path d="M274.997 247.787l.968-15.482C288.606 236.748 301.853 239 315.5 239c65.893 0 119.5-53.607 119.5-119.5S381.393 0 315.5 0c-63.373 0-115.373 49.589-119.258 112h-37.133c-17.715 0-34.151 7.11-46.28 20.021S94.628 161.78 95.733 179.46l4.27 68.326c.08 29.568 12.534 56.017 31.997 73.489v11.953l-13.183 19.774-61.71 16.831C39.969 374.508 28 390.178 28 407.941V439.5c0 12.958 10.542 23.5 23.5 23.5h272c12.958 0 23.5-10.542 23.5-23.5v-31.559c0-17.764-11.969-33.434-29.106-38.107l-61.711-16.831L243 333.229v-11.953c19.463-17.473 31.916-43.921 31.997-73.489zm-66.193 138.41c-.001 0-.001-.001 0 0l-10.193-10.193 35.279-29.399 8.597 12.896-23.813 35.721c-.04.059-.131.196-.367.22s-.354-.095-.403-.145l-9.1-9.1zm-42.61.003l-9.097 9.097a.47.47 0 0 1-.403.144c-.235-.023-.327-.161-.367-.22L132.514 359.5l8.597-12.896 35.279 29.399-10.19 10.19a.043.043 0 0 1-.006.007zm21.306-20.463l-39.931-33.276C159.548 339.195 173.124 343 187.5 343s27.952-3.805 39.931-10.538L187.5 365.737zm0 57.263c.629 0 1.249-.032 1.866-.081L194.51 448h-14.02l5.145-25.081c.616.049 1.236.081 1.865.081zm8.5-23.5c0 4.687-3.813 8.5-8.5 8.5s-8.5-3.813-8.5-8.5v-4.893l8.5-8.5 8.5 8.5v4.893zM308 15.272V31.5c0 4.143 3.358 7.5 7.5 7.5s7.5-3.357 7.5-7.5V15.272c51.66 3.682 93.053 45.079 96.729 96.74-.077-.002-.152-.012-.229-.012h-16c-4.142 0-7.5 3.357-7.5 7.5s3.358 7.5 7.5 7.5h16c.077 0 .152-.009.229-.012-3.676 51.661-45.069 93.058-96.729 96.74V207.5c0-4.143-3.358-7.5-7.5-7.5s-7.5 3.357-7.5 7.5v16.229a103.083 103.083 0 0 1-31.057-7.077l2.325-37.192c1.105-17.681-4.967-34.528-17.096-47.439S233.605 112 215.891 112h-4.619c3.681-51.656 45.072-93.047 96.728-96.728zm-184.239 127.02c9.264-9.861 21.818-15.292 35.348-15.292h56.781c13.53 0 26.084 5.431 35.348 15.292s13.901 22.729 13.058 36.233l-1.411 22.573c-6.35-12.898-12.925-21.505-13.455-22.189a7.498 7.498 0 0 0-8.747-2.36C203.012 191.809 132.21 192 131.499 192c-1.68 0-3.312.564-4.633 1.603-.523.411-7.453 5.977-14.19 16.482l-1.972-31.559c-.844-13.505 3.793-26.373 13.057-36.234zm-8.753 105.545c2.253-22.35 14.741-36.36 19.386-40.86 13.493-.171 69.594-1.655 106.309-14.421 6.17 9.301 19.297 31.81 19.297 54.943 0 44.388-32.523 80.5-72.5 80.5-39.875.001-72.327-35.929-72.492-80.162zM43 439.5v-31.559c0-11.018 7.424-20.737 18.054-23.637l59.204-16.147 23.589 35.383a15.447 15.447 0 0 0 11.37 6.827 15.407 15.407 0 0 0 10.274-2.637 23.58 23.58 0 0 0 6.092 9.038L165.177 448H99v-24.5c0-4.143-3.358-7.5-7.5-7.5s-7.5 3.357-7.5 7.5V448H51.5c-4.687 0-8.5-3.813-8.5-8.5zm289-31.559V439.5c0 4.687-3.813 8.5-8.5 8.5H291v-24.5c0-4.143-3.358-7.5-7.5-7.5s-7.5 3.357-7.5 7.5V448h-66.177l-6.406-31.23a23.58 23.58 0 0 0 6.092-9.038 15.407 15.407 0 0 0 10.274 2.637 15.447 15.447 0 0 0 11.37-6.827l23.589-35.383 59.205 16.147C324.576 387.204 332 396.924 332 407.941z"></path></svg>