<svg xmlns="http://www.w3.org/2000/svg" xml:space="preserve" version="1.1" style="shape-rendering:geometricPrecision; text-rendering:geometricPrecision; image-rendering:optimizeQuality; fill-rule:evenodd; clip-rule:evenodd"
viewBox="0 0 16210 16337"
 xmlns:xlink="http://www.w3.org/1999/xlink">
 <g id="Camada_x0020_1">
  <metadata id="CorelCorpID_0Corel-Layer"/>
  <path d="M8555 2792l1188 -1146c157,42 491,430 624,563l1801 1801c205,205 2288,2251 2405,2425 -45,168 -1038,1115 -1146,1187 -166,-247 -568,-655 -901,-655 -367,0 -513,247 -706,440 -208,208 -386,386 -593,594l-1167 1208c-1348,1347 -877,817 -693,2350 97,806 170,1959 -197,2654l-7174 -7154c1276,-693 3665,31 3776,31 411,0 763,-456 993,-686l1698 -1698c307,-307 747,-625 747,-1054 0,-336 -494,-621 -655,-860zm-1555 -41c0,371 427,789 655,941l-1934 1955c-228,-4 -1209,-235 -2078,-235 -687,0 -1452,141 -1959,332 -349,132 -1275,631 -1275,1060 0,459 36,424 399,788 483,482 3355,3308 3490,3510 -171,255 -832,852 -1095,1115l-2210 2211c-403,403 -993,851 -993,1259 0,365 295,635 616,649 390,18 549,-238 786,-475 433,-433 836,-836 1269,-1269l1904 -1904c178,-178 481,-522 665,-645 289,194 3513,3567 3829,3785 715,494 1284,-542 1499,-1077 214,-532 362,-1255 362,-2012 0,-452 -122,-1829 -246,-2087l1955 -1934c376,257 425,624 992,624 308,0 1175,-991 1423,-1239 228,-228 427,-426 655,-655 354,-354 501,-362 501,-972 0,-395 -443,-709 -665,-931l-4830 -4831c-862,-861 -926,-977 -1740,-163l-1392 1391c-192,193 -583,472 -583,809z"/>
 </g>
</svg>
