<svg xmlns="http://www.w3.org/2000/svg" xml:space="preserve" version="1.1" style="shape-rendering:geometricPrecision; text-rendering:geometricPrecision; image-rendering:optimizeQuality; fill-rule:evenodd; clip-rule:evenodd"
viewBox="0 0 11084 11171"
 xmlns:xlink="http://www.w3.org/1999/xlink">
 <g id="Camada_x0020_1">
  <metadata id="CorelCorpID_0Corel-Layer"/>
  <path d="M4786 1881c0,253 292,539 448,644l-1322 1337c-156,-4 -827,-162 -1421,-162 -470,0 -993,97 -1340,228 -238,90 -871,431 -871,724 0,314 24,290 273,539 330,330 2294,2262 2386,2400 -117,175 -569,583 -749,763l-1511 1511c-276,276 -679,583 -679,861 0,250 202,435 421,444 267,12 375,-163 538,-325 296,-296 571,-572 867,-868l1302 -1301c122,-122 330,-357 455,-441 198,132 2402,2439 2618,2588 489,337 878,-371 1025,-736 146,-364 247,-859 247,-1376 0,-310 -83,-1251 -167,-1428l1336 -1322c258,176 291,427 679,427 210,0 803,-678 973,-847 156,-156 291,-292 447,-448 242,-242 343,-248 343,-665 0,-270 -303,-485 -455,-637l-3302 -3302c-590,-590 -634,-669 -1190,-112l-952 951c-131,132 -399,323 -399,553z"/>
 </g>
</svg>
