<svg fill="rgb(109, 116, 112)" xmlns="http://www.w3.org/2000/svg" viewBox="0 0 37.627 37.628" aria-labelledby="title"><title>pessoas conectadas ao redor do mundo</title><path d="M30.815 27.002a5.278 5.278 0 0 0-3.819 1.633l-2.231-2.23c2.254-1.77 3.709-4.512 3.709-7.59a9.623 9.623 0 0 0-2.968-6.947l2.233-2.233a5.288 5.288 0 0 0 3.074.991 5.311 5.311 0 1 0 0-10.622 5.31 5.31 0 0 0-5.312 5.311c0 1.424.566 2.709 1.479 3.662l-2.232 2.234a9.613 9.613 0 0 0-11.975.079L10.56 9.077A5.313 5.313 0 1 0 1.5 5.313a5.31 5.31 0 0 0 5.312 5.311 5.29 5.29 0 0 0 2.972-.907l2.239 2.238a9.628 9.628 0 0 0 .734 14.367l-2.214 2.216a5.284 5.284 0 0 0-3.73-1.535 5.311 5.311 0 1 0 0 10.623 5.31 5.31 0 0 0 5.312-5.311c0-1.117-.348-2.15-.937-3.006l2.354-2.354-.17-.17a9.592 9.592 0 0 0 10.558.205l2.437 2.438a5.271 5.271 0 0 0-.863 2.891 5.31 5.31 0 0 0 5.312 5.312 5.316 5.316 0 0 0-.001-10.629zm0-24.968c.957 0 1.73.578 1.73 1.67 0 1.093-.773 2.283-1.73 2.283s-1.731-1.19-1.731-2.283c-.001-1.092.774-1.67 1.731-1.67zm-3.354 5.754c0-.463.398-1.034.891-1.268l1.09-.518.756 1.575.386-1.049c.076.015.151.033.231.033.078 0 .152-.021.23-.033l.367.996.738-1.539 1.123.533c.49.231.893.805.893 1.27v.804h-6.705v-.804zM6.814 2.034c.957 0 1.731.578 1.731 1.67 0 1.093-.774 2.283-1.731 2.283s-1.731-1.19-1.731-2.283c0-1.092.774-1.67 1.731-1.67zm3.353 6.559H3.462v-.806c0-.463.4-1.034.891-1.268L5.442 6l.756 1.576.386-1.049c.077.014.152.033.231.033s.154-.021.231-.033l.367.996.74-1.539 1.123.533c.49.231.891.805.891 1.27v.806zM6.814 29.034c.957 0 1.731.577 1.731 1.67 0 1.094-.774 2.282-1.731 2.282s-1.731-1.188-1.731-2.282c0-1.093.774-1.67 1.731-1.67zm3.353 6.558H3.462v-.805c0-.463.4-1.035.891-1.268l1.089-.521.756 1.576.386-1.05c.076.015.152.033.231.033s.154-.02.231-.033l.367.996.74-1.539 1.123.533c.49.232.891.805.891 1.271v.807zm7.04-24.989a10.745 10.745 0 0 0-3.106 4.24h-2.65a8.383 8.383 0 0 1 5.756-4.24zm-6.762 8.21c0-.939.162-1.84.448-2.682h2.783a10.498 10.498 0 0 0-.335 2.627c0 .824.102 1.633.286 2.416H10.79a8.3 8.3 0 0 1-.345-2.361zm.848 3.648h2.727a10.752 10.752 0 0 0 3.342 4.586 8.383 8.383 0 0 1-6.069-4.586zm6.877 3.564a9.455 9.455 0 0 1-2.748-3.562h2.748v3.562zm0-4.851h-3.211a9.187 9.187 0 0 1-.33-2.416c0-.904.146-1.783.398-2.627h3.143v5.043zm0-6.331h-2.648a9.514 9.514 0 0 1 2.648-3.354v3.354zm9.014 3.97c0 .82-.123 1.611-.346 2.361H24a10.444 10.444 0 0 0-.049-5.043h2.781c.29.843.452 1.743.452 2.682zm-1.004-3.97h-2.65a10.745 10.745 0 0 0-3.106-4.24 8.392 8.392 0 0 1 5.756 4.24zm-6.722-3.352a9.454 9.454 0 0 1 2.647 3.354h-2.647v-3.354zm0 4.641h3.144c.252.844.398 1.723.398 2.627 0 .828-.117 1.636-.33 2.416h-3.211v-5.043zm0 6.329h2.748a9.456 9.456 0 0 1-2.748 3.564v-3.564zm4.15 0h2.728a8.379 8.379 0 0 1-6.067 4.586 10.77 10.77 0 0 0 3.339-4.586zm7.207 6.573c.957 0 1.73.577 1.73 1.67 0 1.094-.773 2.282-1.73 2.282s-1.731-1.188-1.731-2.282c-.001-1.093.774-1.67 1.731-1.67zm3.352 6.558h-6.705v-.805c0-.463.399-1.035.892-1.268l1.09-.521.756 1.576.387-1.05c.076.015.15.033.23.033.078 0 .154-.02.229-.033l.367.996.739-1.539 1.123.533c.49.232.892.805.892 1.271v.807z"></path></svg>