<svg xmlns="http://www.w3.org/2000/svg" xml:space="preserve" version="1.0" style="shape-rendering:geometricPrecision; text-rendering:geometricPrecision; image-rendering:optimizeQuality; fill-rule:evenodd; clip-rule:evenodd"
viewBox="0 0 15540 7774"
 xmlns:xlink="http://www.w3.org/1999/xlink">
 <defs>
  <style type="text/css">
   <![CDATA[
    .fil0 {fill:rgba(0,75,181,1)}
    .fil1 {fill:rgba(246,190,0,1)}
   ]]>
  </style>
 </defs>
 <g id="Camada_x0020_1">
  <metadata id="CorelCorpID_0Corel-Layer"/>
  <g id="_1878395578976">
   <path class="fil0" d="M7799 5284l-1930 0c5,-223 171,-437 310,-577 149,-149 383,-239 657,-247 97,-2 279,34 366,63 116,38 210,89 288,165 153,149 304,356 309,596zm-6420 236l275 76c78,44 436,113 552,141 302,71 810,167 1044,334 152,108 228,299 65,460 -231,228 -815,189 -1173,117 -201,-40 -348,-100 -519,-171 -178,-74 -402,-221 -461,-242 -58,47 -291,383 -349,472 -59,88 -110,156 -169,244l-171 253 243 121c300,144 529,229 867,314 655,165 1388,196 2068,-4 188,-55 388,-155 532,-255 146,-101 300,-245 393,-396 95,-153 190,-358 190,-597l40 0c24,297 429,728 712,922 114,77 223,134 362,189 612,245 1240,204 1900,51 0,-151 0,-302 0,-453l1 -358c-11,-112 42,-66 -413,25 -395,79 -819,35 -1131,-193 -149,-109 -349,-353 -368,-577l2936 2c192,2 137,9 137,-573 148,99 159,186 495,312 561,212 1696,300 1813,609 92,244 -121,382 -331,445 -362,109 -1041,-26 -1404,-148 -186,-62 -423,-152 -573,-253l0 1024c236,125 737,254 1015,304 404,73 837,67 1218,-20 614,-141 1312,-614 1312,-1348 19,22 -1,-7 25,34l77 140c80,133 258,371 370,457 131,99 119,111 312,240 532,357 1108,447 1757,449 202,1 337,-39 512,-39l0 -867c-280,0 -330,55 -695,-14 -377,-71 -744,-268 -966,-571 -397,-543 -154,-1225 394,-1529 87,-48 154,-84 250,-123 180,-72 436,-128 642,-127l375 20 0 -847c-384,-32 -199,-38 -650,-39 -770,-2 -1695,319 -2156,937 -59,79 -94,124 -145,209 -183,303 -201,466 -249,795 -23,161 6,199 9,324 -90,-66 -127,-194 -381,-329 -705,-375 -1678,-384 -1900,-600 -210,-204 78,-431 463,-495 285,-48 659,17 934,102 97,29 185,80 273,101l0 -887c-341,-79 -517,-159 -925,-157 -695,2 -1338,90 -1788,635 -116,140 -237,388 -241,586l-72 -144c-185,-373 -429,-644 -814,-841 -620,-318 -1593,-311 -2242,83l-403 306c-51,51 -63,76 -108,128 -151,173 -254,346 -345,580 -105,267 -132,451 -132,814 -25,-29 -8,-6 -32,-47 -15,-25 -20,-37 -36,-63 -367,-570 -1336,-749 -1953,-883 -181,-40 -710,-162 -804,-319 -160,-266 145,-641 872,-517 149,25 252,71 329,76 114,-169 248,-295 383,-453 132,-155 269,-288 403,-433 -494,-153 -1033,-294 -1570,-223 -297,40 -447,26 -766,141 -213,77 -439,196 -593,333 -165,147 -294,298 -384,522 -245,618 -54,1271 533,1564l329 144z"/>
   <path class="fil1" d="M473 7204l171 -253c59,-88 110,-156 169,-244 58,-89 291,-425 349,-472 82,-144 457,-581 492,-639l-275 -76c-33,49 -33,45 -79,79 -40,31 -57,50 -96,81l-263 229c-34,30 -57,56 -89,89l-852 881c50,75 367,271 473,325zm3357 -4165c-134,145 -271,278 -403,433 -135,158 -269,284 -383,453 18,26 -14,-2 26,24l140 55 1257 -1009 776 -504 823 -437c57,-26 108,-54 171,-86 635,-320 1578,-616 2263,-789 1103,-278 2083,-344 3199,-346 309,-1 636,31 947,57 484,41 865,98 1343,194 288,57 539,129 802,202l569 199c61,25 111,60 180,76 -128,-174 -1017,-604 -1287,-741 -232,-118 -837,-353 -1089,-428 -478,-140 -705,-200 -1229,-288 -312,-53 -1138,-133 -1432,-93 -78,11 -136,14 -242,14 -114,-1 -134,17 -236,20 -162,5 -306,28 -462,50 -161,24 -287,42 -439,73 -1653,334 -3071,1054 -4327,2035l-967 836z"/>
  </g>
 </g>
</svg>
