<svg xmlns="http://www.w3.org/2000/svg" xml:space="preserve" version="1.0" style="shape-rendering:geometricPrecision; text-rendering:geometricPrecision; image-rendering:optimizeQuality; fill-rule:evenodd; clip-rule:evenodd"
viewBox="0 0 66124 17211"
 xmlns:xlink="http://www.w3.org/1999/xlink">
 <defs>
  <style type="text/css">
   <![CDATA[
    .sesc-fecomercio-senac-fil2 {fill:#FDBA2F;fill-rule:nonzero}
    .sesc-fecomercio-senac-fil1 {fill:#2A568F;fill-rule:nonzero}
    .sesc-fecomercio-senac-fil0 {fill:#2B558F;fill-rule:nonzero}
   ]]>
  </style>
 </defs>
 <g id="Layer_x0020_1">
  <metadata id="CorelCorpID_0Corel-Layer"/>
  <polygon class="sesc-fecomercio-senac-fil0" points="40651,8815 40651,9478 42182,9478 42182,10197 40651,10197 40651,11641 39808,11641 39808,8095 42553,8095 42553,8815 "/>
  <path class="sesc-fecomercio-senac-fil0" d="M62978 8518l-863 0 0 -601 863 0 0 601zm-863 414l863 0 0 2709 -863 0 0 -2709z"/>
  <path class="sesc-fecomercio-senac-fil0" d="M64649 8845c204,0 396,38 574,112 179,75 336,177 470,307 133,129 239,280 316,453 77,174 115,359 115,557 0,197 -38,381 -115,553 -77,172 -183,322 -316,451 -134,130 -291,232 -470,307 -178,74 -370,112 -574,112 -204,0 -396,-38 -575,-112 -178,-75 -335,-177 -469,-307 -134,-129 -239,-279 -316,-451 -77,-172 -115,-356 -115,-553 0,-198 38,-383 115,-557 77,-173 182,-324 316,-453 134,-130 291,-232 469,-307 179,-74 371,-112 575,-112zm0 2219c130,0 237,-20 319,-61 82,-41 146,-97 193,-168 46,-72 78,-156 95,-253 17,-97 25,-200 25,-308 0,-109 -8,-212 -25,-309 -17,-97 -49,-182 -95,-253 -47,-71 -111,-128 -193,-170 -82,-43 -189,-64 -319,-64 -131,0 -237,21 -319,64 -82,42 -146,99 -193,170 -47,71 -78,156 -96,253 -16,97 -24,200 -24,309 0,108 8,211 24,308 18,97 49,181 96,253 47,71 111,127 193,168 82,41 188,61 319,61z"/>
  <path class="sesc-fecomercio-senac-fil0" d="M44445 11615c-160,41 -291,66 -391,74 -100,8 -184,13 -251,13 -221,0 -421,-35 -600,-105 -179,-69 -333,-166 -461,-291 -129,-123 -229,-273 -299,-446 -71,-173 -106,-364 -106,-571 0,-197 36,-383 108,-556 72,-174 173,-325 301,-455 129,-128 284,-230 465,-305 180,-75 379,-113 597,-113 254,0 471,41 652,123 181,81 329,191 444,329 116,138 201,296 256,474 56,179 83,363 83,554l0 10c0,37 -1,70 -3,97 -1,27 -3,58 -7,92l-2093 0c44,173 130,308 259,403 128,95 280,148 454,158 83,7 167,4 248,-8 82,-12 197,-38 344,-79l0 602zm-627 -2127c-184,0 -334,51 -450,156 -115,103 -191,244 -228,420l1335 0c-27,-173 -95,-313 -205,-418 -111,-105 -262,-158 -452,-158z"/>
  <path class="sesc-fecomercio-senac-fil0" d="M45243 10269c0,-225 38,-419 113,-582 75,-164 172,-300 291,-411 119,-110 253,-197 404,-260 151,-63 299,-109 447,-138 147,-29 286,-42 416,-41 131,2 238,13 321,34l0 576c-90,-14 -200,-12 -331,5 -130,17 -257,57 -381,120 -124,63 -230,150 -316,263 -88,112 -131,256 -131,434 0,176 43,322 131,436 86,113 191,201 313,262 122,61 249,100 382,115 132,15 243,13 333,-8l0 592c-83,20 -190,32 -321,33 -130,2 -269,-12 -416,-40 -148,-29 -296,-75 -447,-138 -151,-63 -285,-150 -404,-260 -119,-111 -216,-247 -291,-409 -75,-161 -113,-356 -113,-583z"/>
  <path class="sesc-fecomercio-senac-fil0" d="M48746 8845c204,0 395,38 574,112 179,75 336,177 470,307 133,129 239,280 316,453 77,174 115,359 115,557 0,197 -38,381 -115,553 -77,172 -183,322 -316,451 -134,130 -291,232 -470,307 -179,74 -370,112 -574,112 -204,0 -396,-38 -575,-112 -179,-75 -335,-177 -469,-307 -134,-129 -239,-279 -316,-451 -77,-172 -116,-356 -116,-553 0,-198 39,-383 116,-557 77,-173 182,-324 316,-453 134,-130 290,-232 469,-307 179,-74 371,-112 575,-112zm0 2219c130,0 236,-20 319,-61 82,-41 146,-97 193,-168 46,-72 78,-156 95,-253 17,-97 25,-200 25,-308 0,-109 -8,-212 -25,-309 -17,-97 -49,-182 -95,-253 -47,-71 -111,-128 -193,-170 -83,-43 -189,-64 -319,-64 -131,0 -237,21 -319,64 -82,42 -146,99 -193,170 -47,71 -79,156 -96,253 -16,97 -24,200 -24,309 0,108 8,211 24,308 17,97 49,181 96,253 47,71 111,127 193,168 82,41 188,61 319,61z"/>
  <path class="sesc-fecomercio-senac-fil0" d="M53734 8845c234,0 439,35 615,105 175,69 321,164 436,283 116,119 202,259 259,421 57,161 85,336 85,522l0 1465 -868 0 0 -1512c0,-71 -9,-142 -28,-214 -18,-71 -47,-135 -88,-193 -40,-57 -93,-105 -160,-142 -67,-38 -150,-56 -251,-56 -100,0 -183,18 -248,56 -65,37 -118,85 -158,142 -41,58 -69,122 -86,193 -17,72 -25,143 -25,214l0 1512 -10 0 -868 0 0 -1512c0,-71 -10,-142 -28,-214 -18,-71 -47,-135 -87,-193 -40,-57 -94,-105 -161,-142 -67,-38 -151,-56 -251,-56 -100,0 -183,18 -248,56 -66,37 -118,85 -158,142 -41,58 -69,122 -86,193 -17,72 -25,143 -25,214l0 1512 -878 0 0 -1465c0,-186 28,-361 85,-522 57,-162 143,-302 259,-421 115,-119 260,-214 434,-283 174,-70 379,-105 617,-105 211,0 395,27 552,79 157,53 294,127 412,222 113,-95 249,-169 406,-222 157,-52 341,-79 552,-79z"/>
  <path class="sesc-fecomercio-senac-fil0" d="M57443 11615c-161,41 -292,65 -392,74 -100,9 -184,13 -251,13 -220,0 -420,-35 -600,-104 -178,-71 -332,-167 -461,-291 -129,-124 -228,-274 -299,-447 -70,-173 -105,-364 -105,-571 0,-197 36,-383 108,-556 72,-174 172,-325 301,-454 129,-129 283,-231 464,-306 181,-75 380,-112 598,-112 253,0 471,40 652,121 180,83 328,192 444,330 115,138 201,296 256,474 55,179 83,364 83,554l0 10c0,37 -1,70 -3,97 -1,27 -4,58 -7,92l-2093 0c43,173 130,308 258,403 129,95 280,148 455,158 83,7 166,4 248,-8 82,-12 196,-38 344,-79l0 602zm-628 -2127c-184,0 -333,52 -449,155 -115,104 -191,245 -228,421l1335 0c-27,-173 -96,-313 -206,-418 -110,-105 -261,-158 -452,-158zm201 -883l642 -612 -657 -291 -567 903 582 0z"/>
  <path class="sesc-fecomercio-senac-fil0" d="M60032 9452c-100,0 -194,9 -281,26 -87,17 -160,39 -221,66 -47,20 -89,43 -128,69 -38,25 -70,57 -95,94 -25,38 -44,84 -58,141 -13,55 -20,126 -20,211l0 1582 -878 0 0 -1633c0,-166 33,-321 100,-464 67,-143 163,-266 286,-370 124,-104 275,-185 454,-245 179,-59 383,-89 610,-89l65 0c21,0 45,1 73,3 29,1 60,4 93,7l0 602z"/>
  <path class="sesc-fecomercio-senac-fil0" d="M59902 10269c0,-225 37,-419 113,-582 75,-164 172,-300 291,-411 119,-110 253,-197 404,-260 150,-63 299,-109 446,-138 148,-29 286,-42 417,-41 130,2 237,13 321,34l0 576c-90,-14 -201,-12 -331,5 -131,17 -258,57 -382,120 -124,63 -229,150 -316,263 -87,112 -130,256 -130,434 0,176 43,322 130,436 87,113 192,201 314,262 122,61 249,100 381,115 132,15 244,13 334,-8l0 592c-84,20 -191,32 -321,33 -131,2 -269,-12 -417,-40 -147,-29 -296,-75 -446,-138 -151,-63 -285,-150 -404,-260 -119,-111 -216,-247 -291,-409 -76,-161 -113,-356 -113,-583z"/>
  <path class="sesc-fecomercio-senac-fil1" d="M53524 16152c-16,0 -32,1 -48,1 -668,0 -1152,-428 -1152,-1017l0 -13c0,-564 485,-1005 1104,-1005 33,0 65,1 96,3l0 -677c-28,-1 -58,-1 -88,-1 -1075,0 -1917,571 -2094,1373 -76,-635 -518,-1005 -1411,-1005 -40,0 -178,0 -216,1l0 684c176,1 418,31 525,88 158,83 241,223 244,413 -215,-25 -460,-42 -672,-48 -839,-21 -1266,247 -1369,681l0 -443c0,-764 -467,-1360 -1455,-1360 -905,0 -1373,499 -1446,1169 -115,-660 -590,-1201 -1506,-1201 -929,0 -1579,663 -1579,1469l0 10c0,20 1,40 2,60 -187,-304 -600,-470 -1202,-601 -716,-152 -817,-226 -817,-452l0 -10c0,-167 184,-300 533,-300 178,0 410,48 573,109l0 -722c-152,-26 -384,-56 -561,-56 -847,0 -1450,413 -1450,1039l0 9c0,684 538,875 1373,1053 692,147 757,246 757,438l0 9c0,202 -225,325 -598,325 -473,0 -786,-162 -1159,-418l-539 536c497,369 1053,551 1680,551 868,0 1485,-361 1520,-1009 236,550 823,899 1556,899 28,0 117,-4 144,-5l0 -643c-22,1 -108,5 -132,5 -405,0 -691,-189 -781,-553l2176 0 0 1143 915 0 0 -1549c17,-283 128,-617 541,-617 412,0 532,334 548,617l0 1549 907 0 0 -619c108,426 549,656 1070,656 442,0 745,-142 965,-358l0 325 876 0 0 -1177c202,764 1037,1320 2067,1320 36,0 69,-1 103,-1l0 -675zm-3037 -475l0 0c-78,413 -505,475 -601,480 -689,36 -713,-435 -482,-579 311,-193 1086,-84 1086,-84 0,28 7,98 -3,183zm-7142 -639c71,-363 315,-601 691,-601 381,0 619,243 673,601l-1364 0z"/>
  <path class="sesc-fecomercio-senac-fil2" d="M6729 8687c2280,-2893 8566,-8687 17138,-8687 6016,0 10572,3428 10572,3428 -3388,-1648 -16784,-4327 -27329,5426l-381 -167z"/>
  <path class="sesc-fecomercio-senac-fil1" d="M12971 11718c228,-1120 1006,-1851 2201,-1851 1214,0 1973,747 2144,1851l-4345 0zm20767 -2008c231,0 457,18 677,52l0 -1862c-408,-57 -844,-84 -1317,-84 -3275,0 -5747,1961 -5747,4583 0,179 11,354 33,524 -481,-808 -1546,-1218 -3063,-1531 -1931,-393 -2198,-563 -2159,-989 37,-404 685,-778 1653,-778 619,0 1448,147 2186,491l0 -1950c-712,-218 -1488,-363 -2327,-363 -2437,0 -4073,1168 -4202,2771 -1,10 -1,20 -2,30 -589,-1580 -1964,-2765 -4332,-2765 -2849,0 -4795,2083 -4795,4609 0,64 1,128 3,191 -535,-1163 -1933,-1699 -3819,-2110 -2228,-478 -2545,-697 -2545,-1205 0,-488 569,-904 1456,-885 690,15 1102,180 1291,248l0 0c551,-683 1142,-1338 1769,-1960 -933,-339 -1951,-515 -3050,-515 -2650,0 -4500,1326 -4500,3320 0,1529 799,2224 2199,2700 75,24 294,92 421,133 482,140 1022,264 1616,391 2186,469 2368,863 2368,1297 0,511 -608,816 -1626,816 -1163,0 -2240,-343 -3368,-1072 -578,782 -1174,1640 -1492,2166 1416,772 3071,1248 4807,1248 2829,0 4615,-1219 4709,-3213 598,1816 2273,2996 4535,2996 436,0 1062,-14 2092,-270l0 -1937c-958,277 -1369,305 -1931,276 -1124,-58 -2043,-692 -2307,-1803l6806 0c17,-228 35,-373 35,-617l0 -33c0,-239 -13,-477 -39,-711 517,713 1651,1004 3207,1319 1895,385 2000,674 2000,1119 0,392 -505,843 -1624,805 -1150,-38 -2497,-380 -3537,-968l0 2238c1085,485 2461,788 3529,788 2564,0 4323,-1502 4323,-3125 0,-36 -1,-71 -2,-106 453,1063 1345,1870 2358,2363 1010,490 2090,645 2978,651 522,4 975,-34 1410,-104l0 -1892c-220,36 -446,54 -677,54 -1898,0 -3436,-1194 -3436,-2666 0,-1472 1538,-2665 3436,-2665z"/>
  <path class="sesc-fecomercio-senac-fil2" d="M3655 12394c-689,801 -2047,2671 -2589,3570 -534,-312 -816,-513 -1066,-706 825,-902 2086,-2233 3120,-3034 0,0 472,146 535,170z"/>
 </g>
</svg>
