<svg id="bold" enable-background="new 0 0 24 24" viewBox="0 0 24 24" xmlns="http://www.w3.org/2000/svg"><path d="m21 1h-18c-1.654 0-3 1.346-3 3v16c0 1.654 1.346 3 3 3h18c1.654 0 3-1.346 3-3v-16c0-1.654-1.346-3-3-3zm0 20h-18c-.551 0-1-.448-1-1v-14h20v14c0 .552-.449 1-1 1z"/><path d="m15.782 20h-7.564c-.672 0-1.218-.546-1.218-1.217v-3.783h-1.5c-.206 0-.391-.126-.466-.318s-.024-.41.127-.549l6.5-6c.191-.175.486-.178.678 0l1.661 1.53v-1.163c0-.276.224-.5.5-.5h2c.276 0 .5.224.5.5v3.928l1.85 1.705c.151.14.202.358.127.549-.076.192-.26.318-.466.318h-1.511v3.783c0 .671-.546 1.217-1.218 1.217z"/></svg>