<svg xmlns="http://www.w3.org/2000/svg" xml:space="preserve" version="1.1" style="shape-rendering:geometricPrecision; text-rendering:geometricPrecision; image-rendering:optimizeQuality; fill-rule:evenodd; clip-rule:evenodd"
viewBox="0 0 24577 22529"
 xmlns:xlink="http://www.w3.org/1999/xlink">
 <g id="Camada_x0020_1">
  <metadata id="CorelCorpID_0Corel-Layer"/>
  <path d="M18433 17409c0,565 -459,1024 -1024,1024 -566,0 -1024,-459 -1024,-1024 0,-1131 -459,-2155 -1200,-2897 -741,-741 -1765,-1199 -2896,-1199 -1131,0 -2156,458 -2897,1199 -741,742 -1200,1766 -1200,2897 0,565 -458,1024 -1024,1024 -565,0 -1024,-459 -1024,-1024 0,-1697 688,-3233 1800,-4345 1112,-1112 2648,-1800 4345,-1800 1696,0 3232,688 4344,1800 1112,1112 1800,2648 1800,4345zm-9517 -11565c-399,400 -1048,400 -1448,0 -400,-400 -400,-1048 0,-1448l4090 -4089c32,-33 67,-64 104,-93l2 -2c6,-4 12,-8 17,-12l6 -5c5,-3 9,-6 14,-10l7 -5c5,-3 9,-6 14,-9l7 -5c5,-3 10,-6 14,-9l7 -4c5,-3 10,-6 15,-9l7 -4c5,-3 10,-6 15,-9l6 -3c6,-3 11,-6 17,-9l4 -3c7,-3 13,-6 19,-9l3 -2c7,-3 14,-7 21,-10l0 0c131,-61 278,-95 432,-95 154,0 300,34 431,95l0 0c7,3 14,7 21,10l3 2c6,3 13,6 19,9l4 3c6,3 12,6 17,9l6 3c5,3 10,6 16,9l6 4c5,3 10,6 15,9l7 4c5,3 9,6 14,9l7 5c5,3 9,6 14,9l7 5c5,4 9,7 14,10l6 5c6,4 11,8 17,12l2 2c37,29 71,59 104,92l4090 4090c400,400 400,1048 0,1448 -400,400 -1048,400 -1448,0l-2348 -2348 0 4696c0,566 -459,1024 -1024,1024 -566,0 -1025,-458 -1025,-1024l0 -4696 -2348 2348zm14637 14637c566,0 1024,458 1024,1024 0,566 -458,1024 -1024,1024l-22529 0c-566,0 -1024,-458 -1024,-1024 0,-566 458,-1024 1024,-1024l22529 0zm-4027 -8861c-400,400 -1049,400 -1449,0 -399,-400 -399,-1048 0,-1448l1455 -1454c399,-400 1048,-400 1448,0 400,400 400,1048 0,1448l-1454 1454zm1979 6813c-566,0 -1024,-459 -1024,-1024 0,-566 458,-1024 1024,-1024l2048 0c566,0 1024,458 1024,1024 0,565 -458,1024 -1024,1024l-2048 0zm-20481 0c-566,0 -1024,-459 -1024,-1024 0,-566 458,-1024 1024,-1024l2048 0c566,0 1024,458 1024,1024 0,565 -458,1024 -1024,1024l-2048 0zm2573 -8267c-399,-400 -399,-1048 0,-1448 400,-400 1049,-400 1449,0l1454 1454c400,400 400,1048 0,1448 -400,400 -1049,400 -1448,0l-1455 -1454z"/>
 </g>
</svg>
