<svg xmlns="http://www.w3.org/2000/svg" xml:space="preserve" version="1.1" style="shape-rendering:geometricPrecision; text-rendering:geometricPrecision; image-rendering:optimizeQuality; fill-rule:evenodd; clip-rule:evenodd"
viewBox="0 0 2578 2769"
 xmlns:xlink="http://www.w3.org/1999/xlink">
 <g id="Camada_x0020_1">
  <metadata id="CorelCorpID_0Corel-Layer"/>
  <path d="M753 507l-45 -11c-7,-2 -13,-8 -15,-15 -4,-12 -9,-24 -15,-35 -3,-7 -3,-15 1,-21l24 -39c5,-9 4,-20 -3,-27l-38 -37c-7,-7 -17,-8 -26,-3l-39 24c-7,3 -15,4 -21,0 -12,-5 -23,-10 -36,-14 -7,-3 -12,-8 -14,-16l-11 -44c-3,-10 -11,-17 -21,-17l-52 0c-10,0 -19,7 -21,17l-12 44c-1,8 -7,13 -14,16 -12,4 -24,9 -35,14 -7,4 -15,3 -21,0l-40 -24c-8,-5 -19,-4 -26,3l-37 37c-7,7 -8,18 -3,27l23 39c4,6 5,14 1,21 -6,11 -11,23 -14,35 -3,7 -9,13 -16,15l-44 11c-10,2 -17,11 -17,21l0 52c0,10 7,19 17,21l44 11c7,2 13,7 16,15 4,12 8,24 14,35 4,6 3,14 -1,21l-23 39c-5,9 -4,19 3,26l37 38c7,7 18,8 26,3l40 -24c6,-4 14,-4 21,-1 11,6 23,11 35,15 7,2 13,8 14,15l12 45c2,10 11,16 20,16l53 0c10,0 19,-6 21,-16l11 -45c2,-7 7,-13 14,-15 13,-4 24,-9 36,-15 6,-3 14,-3 21,1l39 24c8,5 19,4 26,-3l37 -37c7,-7 9,-18 4,-27l-24 -39c-4,-7 -4,-15 -1,-21 6,-11 11,-23 15,-35 2,-8 8,-13 15,-15l45 -11c9,-2 16,-11 16,-21l0 -52c0,-10 -7,-19 -16,-21zm506 -4c184,41 348,138 473,272 -35,13 -69,29 -101,48 -99,-98 -223,-171 -362,-208 0,-39 -4,-76 -10,-112zm-989 663c-24,76 -36,157 -36,241 0,70 9,138 25,203 -32,22 -62,46 -89,73 -28,-87 -42,-180 -42,-276 0,-109 19,-213 53,-310 27,25 57,49 89,69zm997 1034c154,-41 290,-126 394,-240 33,17 68,31 104,42 -131,155 -311,267 -517,311 10,-36 16,-74 19,-113zm-646 -2200c343,0 621,278 621,621 0,343 -278,621 -621,621 -343,0 -621,-278 -621,-621 0,-343 278,-621 621,-621zm0 71c304,0 550,246 550,550 0,304 -246,550 -550,550 -304,0 -550,-246 -550,-550 0,-304 246,-550 550,-550zm155 2410l3 0c-36,-4 -55,-19 -65,-33l-186 0c-10,14 -29,29 -65,33l2 0c-11,0 -20,9 -20,21 0,11 9,20 20,20l311 0c11,0 20,-9 20,-20 0,-12 -9,-21 -20,-21l0 0zm208 -198l0 -380c0,-29 -24,-53 -53,-53l-620 0c-29,0 -53,24 -53,53l0 467c1,25 21,45 47,45l632 0c26,0 46,-20 47,-45l0 -87 0 0zm-321 81c0,7 -5,12 -11,12l-61 0c-7,0 -12,-5 -12,-12l0 -8c0,-6 5,-12 12,-12l61 0c6,0 11,6 11,12l0 8 0 0zm268 -63l-620 0c-5,0 -9,-4 -9,-9l0 -389c0,-5 4,-9 9,-9l620 0c5,0 10,4 10,9l0 389c0,5 -5,9 -10,9l0 0zm-310 -774c343,0 621,278 621,621 0,343 -278,621 -621,621 -343,0 -621,-278 -621,-621 0,-343 278,-621 621,-621zm0 71c304,0 550,246 550,550 0,304 -246,550 -550,550 -304,0 -550,-246 -550,-550 0,-304 246,-550 550,-550zm1616 -243c-13,-137 -129,-244 -269,-244 -116,0 -218,75 -255,183 -88,13 -155,88 -155,179 0,100 81,181 181,181l465 0c84,0 152,-67 152,-151 0,-73 -51,-134 -119,-148l0 0zm-33 232l-465 0c-62,0 -113,-51 -113,-114 0,-62 51,-113 113,-113 31,0 59,12 80,33 32,32 81,-16 49,-48 -24,-23 -53,-39 -84,-47 32,-71 104,-119 184,-119 112,0 202,91 202,202 0,22 -3,43 -10,63 -14,45 52,63 65,22 4,-14 8,-27 10,-41 31,12 53,42 53,78 0,46 -37,84 -84,84l0 0zm-247 -825c343,0 621,278 621,621 0,343 -278,621 -621,621 -343,0 -621,-278 -621,-621 0,-343 278,-621 621,-621zm0 71c304,0 550,246 550,550 0,304 -246,550 -550,550 -304,0 -550,-246 -550,-550 0,-304 246,-550 550,-550zm-892 -67l-28 -7c-5,-1 -9,-4 -10,-9 -2,-8 -6,-15 -9,-23 -2,-4 -2,-9 0,-13l15 -25c4,-6 3,-13 -2,-17l-24 -24c-4,-4 -11,-5 -16,-2l-26 15c-4,3 -9,3 -13,1 -7,-4 -15,-7 -23,-10 -4,-1 -8,-5 -9,-10l-7 -28c-2,-6 -7,-11 -13,-11l-34 0c-6,0 -12,5 -13,11l-8 28c-1,5 -4,9 -9,10 -8,3 -15,6 -23,10 -4,2 -9,2 -13,-1l-25 -15c-6,-3 -13,-2 -17,2l-24 24c-4,4 -5,11 -2,17l15 25c3,4 3,9 1,13 -4,8 -7,15 -10,23 -1,5 -5,8 -9,9l-29 7c-6,2 -11,7 -11,14l0 33c0,7 5,12 11,14l29 7c4,1 8,5 9,9 3,8 6,16 10,23 2,4 2,9 -1,13l-15 25c-3,6 -2,13 2,17l24 24c4,5 11,5 17,2l25 -15c4,-2 9,-3 13,0 8,3 15,6 23,9 5,1 8,5 9,10l7 28c2,6 8,11 14,11l34 0c6,0 11,-5 13,-11l7 -28c1,-5 5,-9 9,-10 8,-3 16,-6 23,-9 4,-3 9,-2 13,0l26 15c5,3 12,3 16,-2l24 -24c5,-4 6,-11 2,-17l-15 -25c-2,-4 -3,-9 0,-13 3,-7 6,-15 9,-23 1,-4 5,-8 10,-9l28 -7c7,-2 11,-7 11,-14l0 -33c0,-7 -4,-12 -11,-14zm-182 113c-46,0 -83,-37 -83,-82 0,-46 37,-83 83,-83 45,0 83,37 83,83 0,45 -38,82 -83,82zm-415 -196c-72,0 -129,-58 -129,-129 0,-71 57,-129 129,-129 71,0 129,58 129,129 0,71 -58,129 -129,129z"/>
 </g>
</svg>
