<svg fill="rgb(109, 116, 112)" xmlns="http://www.w3.org/2000/svg" viewBox="0 0 226 226" aria-labelledby="title"><title>montante</title><path d="M210.12 39.812L115.688.537a6.996 6.996 0 0 0-5.376 0L15.88 39.812a7 7 0 0 0-4.312 6.463V219a7 7 0 0 0 7 7h188.864a7 7 0 0 0 7-7V46.276a7 7 0 0 0-4.312-6.464zM200.432 212H25.568V50.946L113 14.582l87.432 36.364V212z"></path><path d="M76.94 95.529l-29.667 29.667a6.999 6.999 0 0 0 4.95 11.949 6.981 6.981 0 0 0 4.95-2.05l29.667-29.667a13.744 13.744 0 0 1 18.455-.936 27.706 27.706 0 0 0 37.201-1.887l24.283-24.283v7.907a7 7 0 1 0 14 0V61.526a7 7 0 0 0-7-7h-24.703a7 7 0 1 0 0 14h7.7l-24.18 24.18a13.745 13.745 0 0 1-18.455.937 27.701 27.701 0 0 0-37.201 1.886zM35.256 150.711a7 7 0 0 0 7 7h141.487a7 7 0 1 0 0-14H42.256a7 7 0 0 0-7 7zM183.744 164.139H42.256a7 7 0 1 0 0 14h141.487a7 7 0 0 0 .001-14zM183.744 184.567H42.256a7 7 0 1 0 0 14h141.487a7 7 0 0 0 .001-14z"></path></svg>