<svg fill="rgb(109, 116, 112)" xmlns="http://www.w3.org/2000/svg" viewBox="0 0 485.8 485.8" aria-labelledby="title"><title>gráfico de pizza em um monitor</title><path d="M346.3 440.6h2.3c-24-3-36.8-12.6-43.6-22.3H180.8c-6.8 9.7-19.6 19.3-43.6 22.3h1.5c-7.5 0-13.5 6.1-13.5 13.5 0 7.5 6.1 13.5 13.5 13.5h207.6c7.5 0 13.5-6.1 13.5-13.5.1-7.5-6-13.5-13.5-13.5zM485.8 307.8V53.5c0-19.5-15.8-35.3-35.3-35.3H35.3C15.8 18.2 0 34 0 53.5v312.6C.6 382.7 14.3 396 31.1 396H454.6c16.8 0 30.4-13.3 31.1-29.9l.1-58.3zm-214.7 54.3c0 4.3-3.5 7.8-7.8 7.8h-40.9c-4.3 0-7.8-3.5-7.8-7.8v-5.4c0-4.3 3.5-7.8 7.8-7.8h40.9c4.3 0 7.8 3.5 7.8 7.8v5.4zm179.4-41.9H35.3c-3.4 0-6.2-2.8-6.2-6.2V53.5c0-3.4 2.8-6.2 6.2-6.2h415.1c3.4 0 6.2 2.8 6.2 6.2V314c0 3.4-2.7 6.2-6.1 6.2z"></path><path d="M344.2 173.3h15.6l.5-.5c0-4.8-.4-9.7-1.1-14.5l-15 15zM308.4 84.7l-49.5 49.5v15.6l59-59c-3.1-2.3-6.3-4.3-9.5-6.1zM286.4 75.6l-27.5 27.5v15.6l39-39c-3.7-1.7-7.6-3-11.5-4.1zM273.6 72.9c-4.8-.7-9.6-1.1-14.5-1.1l-.2.2v15.6l14.7-14.7zM297.6 173.3l49.7-49.7c-1.8-3.2-3.8-6.4-6.1-9.5L282 173.3h15.6zM334.3 105.4c-1.2-1.3-2.4-2.6-3.7-3.9-1.3-1.3-2.7-2.6-4.1-3.9l-67.6 67.7v7.9h7.6l67.8-67.8zM328.7 173.3l27.8-27.8c-1.1-3.9-2.5-7.7-4-11.5l-39.3 39.3h15.5z"></path><path d="M241.2 89.3c-56.2 0-101.8 45.6-101.8 101.8S185 292.9 241.2 292.9 343 247.3 343 191.1H241.2V89.3z"></path></svg>