<?xml version="1.0" encoding="UTF-8"?>
<!DOCTYPE svg PUBLIC "-//W3C//DTD SVG 1.0//EN" "http://www.w3.org/TR/2001/REC-SVG-20010904/DTD/svg10.dtd">
<!-- Creator: CorelDRAW X8 -->
<svg xmlns="http://www.w3.org/2000/svg" xml:space="preserve" width="168.139mm" height="76.3697mm" version="1.0" style="shape-rendering:geometricPrecision; text-rendering:geometricPrecision; image-rendering:optimizeQuality; fill-rule:evenodd; clip-rule:evenodd"
viewBox="0 0 18253 8291"
 xmlns:xlink="http://www.w3.org/1999/xlink">
 <defs>
  <style type="text/css">
   <![CDATA[
    .fil0 {fill:black}
   ]]>
  </style>
 </defs>
 <g id="Camada_x0020_1">
  <metadata id="CorelCorpID_0Corel-Layer"/>
  <path class="fil0" d="M9088 5273l-2447 3c251,-1415 2264,-1404 2447,-3zm-3803 -364c-102,95 -53,43 -90,205 -86,-68 -144,-106 -254,-177 -689,-602 -1901,-593 -2764,-1012 -531,-258 -407,-908 152,-1061 648,-179 1105,83 1628,201l-6 -1367c-725,-93 -1025,-256 -1839,-107 -1231,224 -2056,1074 -1798,2373 235,1181 1579,1377 2571,1626 516,129 1334,301 1046,1013 -179,443 -1110,454 -1650,321 -769,-191 -1061,-592 -1422,-696 -304,479 -748,755 -859,1052 121,56 200,125 309,198 1202,805 2967,1116 4213,450 751,-402 597,-528 931,-968 365,430 475,832 1405,1143 529,177 1700,219 2187,-31l-9 -1053c-185,7 -465,111 -711,133 -839,76 -1650,-360 -1669,-1014l3858 0 -12 -733c941,778 2499,522 2633,1137 195,899 -1563,487 -2061,313 -213,-73 -449,-214 -620,-255l-3 1202c618,338 1796,549 2603,390 867,-170 1433,-557 1717,-1391 157,153 269,478 549,693 195,149 454,324 745,442 559,227 1431,422 2090,263 115,-76 67,-915 66,-1079 -2296,207 -2554,-1843 -1677,-2513 248,-190 738,-441 1188,-446l505 -14c11,-224 5,-447 6,-671 2,-317 75,-399 -210,-419 -971,35 -1811,53 -2497,585 -576,448 -979,946 -999,2031 -152,-83 -213,-188 -392,-290 -1060,-605 -2528,-444 -2124,-1093 187,-300 705,-224 1108,-201l-15 -1005c-1133,-114 -2526,114 -2835,1367 -58,-48 -31,-20 -86,-84 -99,-118 -166,-328 -373,-551 -532,-572 -1460,-798 -2308,-709 -1045,110 -2108,935 -2227,1802zm4031 -3145l561 21c-11,-648 -198,-1438 540,-1287 188,261 133,865 120,1276l565 8c0,-415 -169,-1321 339,-1321 492,1 326,903 325,1318l554 8c5,-763 165,-1711 -832,-1751 -337,-14 -622,162 -678,159 -9,-1 -810,-403 -1290,85 -278,284 -215,1006 -204,1484zm7050 -1347c78,-47 66,7 68,-182 0,-17 -6,-74 -9,-89 -35,-181 -20,-61 -43,-100 -139,-64 -208,-61 -341,7 -855,21 -716,953 -712,1725l561 11c-5,-300 -8,-617 -3,-917 5,-351 137,-427 479,-455zm-10133 1367l503 -1 804 -1742c-668,-10 -550,-224 -1022,1115 -8,-9 -19,-36 -23,-29 -3,8 -17,-22 -21,-29l-409 -1065 -602 3 770 1748zm2463 -988l-833 2c65,-240 138,-358 424,-360 263,-2 355,136 409,358zm-16 969l-3 -359c-402,65 -714,79 -814,-311l1320 -1c102,-1153 -1168,-1322 -1658,-709 -557,699 79,1669 1155,1380zm8478 -1316c646,-181 662,818 286,950 -500,176 -649,-337 -537,-724 48,-166 82,-178 251,-226zm-175 -357c-1180,403 -583,2022 571,1689 407,-117 821,-558 615,-1149 -138,-396 -614,-736 -1186,-540zm-2886 373c583,-372 759,660 422,840 -601,322 -805,-596 -422,-840zm-727 1821l542 19 2 -694c1542,548 1647,-1476 542,-1577 -198,-18 -401,91 -526,73 -235,-33 -146,-67 -552,-33l-8 2212z"/>
 </g>
</svg>
