<svg 
	xmlns="http://www.w3.org/2000/svg" 
	xml:space="preserve" 
	version="1.1" 
	style="
		shape-rendering:geometricPrecision; 
		text-rendering:geometricPrecision; 
		image-rendering:optimizeQuality; 
		fill-rule:evenodd; 
		clip-rule:evenodd
	"
	viewBox="0 0 21682.83 15890.56"
	xmlns:xlink="http://www.w3.org/1999/xlink"
	xmlns:xodm="http://www.corel.com/coreldraw/odm/2003"
>
	<g id="Camada_x0020_1">
		<path d="M2688.8 11066.14c136.26,4.48 305.07,86.86 678.89,84.31 276.49,-1.89 461.99,-56.8 716.52,-91.89 -0.03,528.71 -11.93,234.46 62.13,647.63 -165.65,167.86 -374.81,480.42 -755.46,483.46 -373.2,2.98 -623.13,-321.47 -771.04,-485.87 82.27,-256.06 68.95,-346.13 68.95,-637.65zm11572.58 4824.42l625.6 0c0,-381.09 0,-762.18 0,-1143.27 0,-328.3 87.51,-834.26 -314.5,-827.22 -393.34,6.89 -311.1,484.82 -311.1,827.22 0,381.09 0,762.18 0,1143.27zm-7458.4 0l625.6 0c0,-381.09 0,-762.18 0,-1143.27 0,-336.41 80.01,-828.48 -310.7,-826.66 -410.74,1.92 -314.9,512.19 -314.9,826.66 0,381.09 0,762.18 0,1143.27zm-5413.49 0l625.78 0c0,-426.82 0,-853.64 0,-1280.46 0,-362.75 102.72,-960.27 -316.23,-958.71 -421.2,1.56 -309.55,610.42 -309.55,958.71 0,426.82 0,853.64 0,1280.46zm18285.19 0l625.78 0 0.22 -2218.45c0.7,-165.69 10.33,-427.57 -309.53,-426.34 -228.85,0.88 -316.51,172.55 -317.1,403.06l0.63 2241.73zm-2785.38 -9081.93c-277.96,70.18 -326.12,402.37 -118.82,550.31 133.6,95.34 598.94,89.07 808.81,107.66 259.38,22.98 526.74,60.63 776.67,113.56 210.52,44.58 555.24,217.2 730.15,156.65 219.67,-76.06 294.11,-391.46 90.11,-543.66 -137.94,-102.92 -472.56,-191.43 -674.72,-239.63 -286.33,-68.26 -1351.69,-210.67 -1612.2,-144.88zm-7059.5 -3898.1c-319.42,15.35 -617.25,44.28 -929.34,83.76 -860.82,108.9 -748.13,542.34 -750.59,1258.11 -1.55,453.2 294.3,512.73 483.02,394.9 209.67,-130.92 141.38,-572.48 140.68,-877.8 -0.27,-117.94 -11.64,-120.72 97.69,-141.05 764.23,-142.11 1850.05,-134.47 2583.12,-10.19 1401.16,237.56 1457.05,741.6 1750.42,762.17 153.34,10.76 267.18,-64.94 309.98,-180.63 113.27,-306.21 -214.15,-495.49 -352.26,-596.85 -834.82,-612.68 -2103.79,-751.49 -3332.73,-692.42zm7439.02 8125.34c632.4,158.18 762.3,121.89 1395.5,21.62 3.56,419.37 98.16,236.68 -263.3,590.64 -128.64,125.97 -331.94,307.58 -434.65,435.54 -149.3,-149.22 -291.4,-292.88 -445.31,-445.44 -355.63,-352.52 -252.12,-147.97 -252.25,-602.36zm-5089 1316c-144.35,-48.15 -706.5,-658.54 -822.8,-767.5 132.48,-96.14 1380.52,-999.74 1511.35,-1032.69l277.06 331.73c-54.13,124.14 -912.17,1341.62 -965.61,1468.46zm-3611.61 -1468.83l283.19 -326.15c126.61,25.34 1364.04,911.13 1505.64,1029.36l-592.28 594.59c-73.31,72.34 -122.17,157.47 -230.35,193.62l-483.32 -749.97c-97.66,-150.32 -432.61,-625.82 -482.89,-741.45zm-3834.27 233.11c0,-86.35 -8.55,-223.42 -0.91,-303.37 14.29,-149.4 161.25,-164.08 401.95,-426.41 157.47,-171.62 326.73,-394.54 440.16,-660.1 128.82,899.83 255.83,698.4 -7.9,931.71 -152.15,134.59 -572.37,394.73 -833.31,458.17zm-3698.4 -620.48c14.66,-109.05 76.15,-254.83 104.74,-375.97 30.1,-127.59 45.97,-267.88 86.67,-394.94 64.78,106.94 94.38,202.37 158.94,305.55 177.94,284.37 417.95,513.11 677.36,704.38l0 382.8c-188.52,-47.31 -423.89,-170.53 -566.83,-260.4 -287.22,-180.61 -286.27,-232.86 -460.87,-361.42zm8101.32 -1116.4c336.61,91.72 705.97,423.47 1662.39,423.47 1065.71,0 1430.52,-327.32 1753.98,-400.87l0.15 563.69 -1708.4 1178.27 -442.95 -297.85c-142.13,-105.33 -281.48,-193.4 -433.1,-299.11 -923.96,-644.2 -832.12,-446.89 -832.25,-967.16l0.18 -200.44zm10874.83 -3638.62c0,635.72 92.31,1550.68 -195.15,2041.19 -347.27,592.57 73.5,1121.77 -360.31,1857.21 -245.69,416.51 -652.85,822.64 -1339.37,880.46 -757.37,63.77 -1230.74,-320.41 -1520.95,-700.51 -563.67,-738.28 -259.38,-1525.45 -389.99,-1848.83 -179.5,-444.45 -577.75,-883.44 -54.67,-1658.85 412.85,-612.01 1024.98,-572.99 1644.83,-572.99 725.63,0 1495.48,-24.77 2215.62,2.32zm-17181.46 2043.61c732.98,-32.08 1526.21,381.84 1870.55,714.49 65.16,62.94 213.72,260.48 275.22,364.6 118.65,200.89 139.53,227.02 58.31,484.08 -437.19,1383.48 -2367.22,1587.82 -3108.53,348.3 -289.61,-484.24 -195.03,-768.25 -270.45,-988.33 -27.71,-80.85 -76.73,-133.15 -150.26,-168.14 -215.86,-102.71 -249.6,174.61 -186.47,-712.36 175.5,-2465.65 3358.01,-2799.87 4032.09,-527.04 109.08,367.79 127.92,745.86 128.95,1148.55 -39.22,-27.71 -13.88,-5.95 -46.12,-37.91l-188.46 -251.76c-148.27,-196.64 -592.42,-502.66 -820.45,-619.33 -464.14,-237.47 -953.64,-359.42 -1541.66,-399.48 -388.13,-26.45 -459.3,159.96 -628.67,342.93 -188.2,203.31 -407.99,368.59 -422.41,542.38 -27.09,326.35 325.64,451.13 547.86,268.39 61.58,-50.64 411.85,-445.79 450.49,-509.35zm11431.06 -7150.54c0,642.1 0,1284.21 0,1926.31 0,558.44 47.37,1334.47 -79.81,1849.05 -74.4,300.98 -241.72,630.65 -252.79,712.2 -88.54,652.64 188.17,1492.92 -392.38,2485.5 -481.74,823.63 -1300.94,1432.73 -2294.33,1550.13 -1134.62,134.1 -2005.69,-296.43 -2705.02,-1064.54 -475.6,-522.4 -761.72,-1335.16 -771.19,-2102.39 -2.41,-195.09 23.74,-802.81 -22.85,-945.83 -81.34,-249.73 -180.53,-421.82 -243.84,-716.8 -67.05,-312.48 -70.47,-565.49 -70.43,-898.43 0.09,-731.44 7.98,-1043.69 326.54,-1603.9 107.79,-189.55 296.07,-419.07 424.74,-534.85 151.2,-136.06 335.06,-280.52 564.36,-395.35 569.88,-285.42 976.72,-261.09 1666.23,-261.09 1283.59,0 2567.18,0 3850.76,0zm-14243.06 15256.84l625.66 0c0,-866.66 -11.91,-1741.51 -0.24,-2607.12 8.06,-598.2 413.22,-678.66 999.45,-971.16 130.39,-65.06 315.35,-170.92 444.43,-214.29 295.91,271.03 584.38,701.77 1257.34,710.31 294.4,3.73 561.78,-85.16 765.17,-222.48 124.13,-83.8 430.13,-384.83 510.55,-492.34l347.07 155.28c-65.06,191.45 -205.46,328.77 -247.67,716.98 -30.61,281.53 -10.16,2531.97 -10.16,2924.81l625.57 0c0,-602.12 0,-1204.25 0,-1806.37 0,-582.44 -88.65,-1175.28 221.24,-1584.39 257.07,-339.39 700.54,-426.34 1197.08,-609.08 429.24,-157.96 891.18,-334.67 1319.02,-472.14 183.73,224.9 827.75,1242.61 955.61,1372.62 203.98,207.42 564.46,249.08 841.65,66.3 199.84,-131.77 428.44,-489.56 613.51,-585.56l0.45 3618.62 625.77 0 0.03 -3591.57c165.12,86.88 417.15,435.36 604.81,572.92 264.89,194.18 624.57,152.54 838.6,-51.78 149.32,-142.53 354.05,-493.75 484.95,-681.86l482.12 -692.44c186.18,41.5 483.87,165.92 666.63,233.97 593.69,221.06 1592.28,484.29 1854.54,843.43 299.93,410.74 216.96,992.13 216.96,1560.95 0,602.12 0,1204.25 0,1806.37l625.57 0c0,-516.72 48.36,-2757.08 -57.61,-3169.93 -102.4,-398.92 -214.12,-468.41 -383.48,-717.19l29.29 -18.57c50.41,-25.21 2.69,-4.8 48.48,-22.1l264.19 -86.7c97.51,70.98 207.6,197.38 300.51,289.37 108.94,107.85 200.51,199.88 309.99,307.35 131.81,129.4 213.63,138.92 211.29,375.58l-0.86 3042.18 625.48 0 -0.04 -2972.51c-1.11,-331.23 -9.6,-252.66 165.71,-428.12 149,-149.12 500.36,-464.98 599.88,-611.25 339.79,54.8 820.59,236.19 1169.65,337.68 335.39,97.52 738.19,199.69 799.49,683.1 34.17,269.41 8.08,2517.58 8.08,2991.1l697.85 0c0,-624.98 0,-1249.98 0,-1874.96 0,-565.27 76.51,-1235.09 -174.31,-1688.78 -247.11,-446.97 -531.7,-556.68 -1143.87,-731.92 -243.88,-69.81 -480.68,-143.73 -724.5,-212.25 -126.77,-35.62 -273.61,-55.95 -305.27,-150.36 -20.39,-60.8 -9.98,-374.63 -9.98,-461.26 66,-71.49 227.44,-175.72 321.66,-265.96 78.09,-74.77 211.73,-218.13 288.54,-328.66 619.17,-890.83 319.31,-1554.28 437.5,-1984.08 62.22,-226.29 252.74,-423.44 309.72,-905.54 41.4,-350.27 13.95,-840.72 13.95,-1205.49 0,-1162.22 107.79,-971.77 -1471.59,-971.77 -494.28,0 -1996.73,-38.78 -2380.45,55.19 -886.58,217.13 -1616.97,1025.63 -1557.76,2083.64 23.9,427.01 157.35,593.62 300.87,914.25 118.64,265.05 -188.85,1376.27 713.83,2328.78 104.57,110.33 229.79,183.67 329.1,282.94 -2.19,437.07 44.53,476.92 -73.78,551.14l-610.46 189.44c-173.15,51.44 -184.87,86.81 -362.06,13.69l-1697.45 -660.22c-12.31,-204.15 -130.55,-308.86 -238.75,-398.89 -127.73,-106.29 -213.69,-218.85 -325.85,-337.61 -183.13,-193.9 -132.28,-158.26 -132.22,-506.44 0.04,-223.14 0.1,-446.29 -0.05,-669.43 297.63,-202.61 613.83,-603.66 844.74,-976.82 445.06,-719.22 526.37,-1372.03 526.66,-2218 0.19,-584.46 -49.22,-338.45 114.47,-799.65 199.43,-561.92 222.54,-963.08 222.53,-1601.22l-0.01 -2743.85c0.26,-746.66 -124.38,-605.92 -1229.64,-605.92 -922.24,0 -1844.47,0 -2766.71,0 -1377.57,0 -1876.8,-104.48 -2975.09,694.29 -295.27,214.74 -600.56,601.18 -809.04,1021.81 -256.56,517.63 -303.54,901.97 -303.68,1542.2 -0.14,636.07 6.43,1056.45 195.9,1628 168.31,507.74 141.04,120.34 141.01,772.86 -0.04,849.15 80.45,1503.37 505.55,2238.82 118.92,205.74 226.73,378.29 369.79,545.41 78.1,91.24 138.88,170.86 210.78,246.56 336.62,354.42 260.05,-35.97 261.3,993.52 0.16,130.93 23.86,261.93 -40.65,345.36 -164.38,212.62 -372.36,375.28 -567.31,621.38 -184.19,232.51 184.04,101.02 -457.29,343.4 -242.27,91.57 -1572.41,566.17 -1726.57,652.29 -74.36,41.54 -170.9,135.47 -236.26,127.38 -45.23,-5.6 -238.5,-105.76 -277.92,-128.02 99.02,-72.5 382.47,-190.76 626.56,-368.56 76.5,-55.72 114.25,-105.55 180.79,-161.26 143.38,-120.03 198.72,-185.56 320.13,-343.71 142.56,-185.7 145.04,-251.03 44.72,-483.14 -436.96,-1011.05 -32.32,-2402.79 -515.69,-3532.2 -71.98,-168.19 -144.27,-283.69 -234.42,-428.41 -677.8,-1088.11 -2115.62,-1535.18 -3308.64,-987.9 -927.21,425.34 -1510.61,1353.98 -1606.5,2465.82 -67.8,786.16 23.4,1736.02 -256.19,2439.97 -138.3,348.18 -82.39,473.32 332.79,852.59 64.25,58.7 101.37,98.89 180.52,161.46 73.17,57.86 130.74,86.18 206.33,137.1l439.37 260.83c-251.43,97.21 -730.82,332.56 -963.41,475.11 -792.07,485.44 -609.37,1393.23 -609.37,2283.66 0,487.79 0,975.59 0,1463.39z"/>
	</g>
</svg>
