<svg 
	xmlns="http://www.w3.org/2000/svg" 
	xml:space="preserve" 
	version="1.1" 
	style="
	shape-rendering:geometricPrecision; 
	text-rendering:geometricPrecision; 
	image-rendering:optimizeQuality; 
	fill-rule:evenodd; 
	clip-rule:evenodd"
	viewBox="0 0 79754.11 61773.12"
	xmlns:xlink="http://www.w3.org/1999/xlink"
	xmlns:xodm="http://www.corel.com/coreldraw/odm/2003"
>
	<g id="Camada_x0020_1">
		<metadata id="CorelCorpID_0Corel-Layer"/>
		<path d="M10429.36 47579.25l-5125.29 17.62c-111.36,-177.33 -43.57,209.54 -92.15,-263.79l25.71 -3102.57c523.73,-113.82 4888.33,-122.81 5279.71,26.11l20.42 2990c-26.99,420.29 19.78,197.48 -108.39,332.62zm46419.85 -11478.92l0 2664.32 -3285.02 -36.22 0 -2591.88 3285.02 -36.22zm-29584.71 25672.79l81.71 0 2817.28 0c0,-1210.58 -110.31,-20086.43 52.87,-20738.4 1201.44,-138.24 24790.76,-24.29 28495.3,-24.29l1689.6 6.23c169.68,33.69 102.43,29.52 196.26,86.15l7.45 20670.31 2487.46 0 84.91 0 -32.85 -43880.98 13937.06 0.13 0 43880.84 89.62 0 2572.43 0 10.51 -46000.5c-675.18,-110.11 -1855.54,-40.94 -2586.35,-40.94 -1058.75,0 -1538.72,166.34 -1608.09,-225.14l3.2 -5623.96 -10735.84 -0.13 0.1 5810.89 -4127.76 26.08 -0.03 23165.92 -1783.16 -37.13 0 -5605.02 -2158 -9.23 0 -2044.36 -3189.16 30.32 0 2023.9 -2042.17 -19.41c0,1714.56 92.89,3691.33 6.47,5371.76 -24.97,485.96 -400.62,318.4 -935.13,317.09l-3941.87 -9.03 0.84 -28926.3 -5251.98 -0.1 -2.06 -9942.79 -19911.19 -35.04 -41.41 9976.55 -5314.31 37.67 0 37586.05 -2064.3 -32.92 -29.35 -5498.21 -11790.72 0 0.1 5519.41 -2251.74 53.2 -0.2 14131.37 3074.06 0 0.98 -12105.18 24318.17 -18.9c28.3,301.25 122.37,3163.01 -68.77,3496.82l-11061.25 1.15 -32.85 8626.12 2907.62 0 4.89 -6178.75c632.19,-130.66 6918.66,-47.64 8121.66,-47.64l0 2250.93 -5759.24 25.71c-178.17,376.49 -178.17,2351.78 -0.03,2750.77l5759.27 2.12 0 1196.86zm-22048.41 0l3119.89 0 0 -891.26 -3120.26 0 0.37 891.26zm5171.25 0l3209.07 0 -21.93 -891.26 -3187.14 0 0 891.26zm-5171.25 -3923.38l3075.65 0 44.24 -4724.78 -2941.92 0 -177.97 0 0 4724.78zm5171.25 0l3187.14 0 21.93 -4724.78 -3209.41 0 0.34 4724.78zm60907 -6954.48l3198.26 0 0 -5438.04 -3209.04 0 10.78 5438.04zm-10.78 8024.39l3209.04 0 -5.22 -5438.04 -3203.82 0 0 5438.04zm-5439.11 -8024.39l3209.41 0 0 -5438.04 -3209.07 0 -0.34 5438.04zm5438.74 -8113.54l3209.41 0 0.37 -5438.04 -3209.41 0 -0.37 5438.04zm-5438.74 0l3209.41 0 0.34 -5438.04 -3209.41 0 -0.34 5438.04zm5439.11 -8113.54l3209.41 0 -0.37 -5438.07 -3209.41 0 0.37 5438.07zm-5438.78 0l3209.41 0 -0.34 -5438.07 -3209.41 0 0.34 5438.07zm5438.78 -8113.54l3209.41 0 -0.37 -5438.07 -3209.41 0 0.37 5438.07zm-5438.78 0l3209.41 0 -0.34 -5438.07 -3209.41 0 0.34 5438.07zm-11.49 32365l3220.56 0 0.34 -5438.04 -3209.41 0 -11.49 5438.04zm-33334.3 -46808.91l2852.76 0 -0.34 -6329.63 -2852.76 0 0.34 6329.63zm-4992.94 0l2852.76 0 -0.34 -6329.63 -2852.76 0 0.34 6329.63zm5171.28 49662.38l3030.73 0 0 -17385.83 -3019.95 0 -10.78 17385.83zm11234.13 0l3119.89 0 -5.22 -17385.83 -3114.66 0 0 17385.83zm11144.98 0l3119.89 0 -2.43 -17385.83 -3117.46 0 0 17385.83zm-16762.06 0l3119.92 0 0 -17385.83 -3119.92 0 0 17385.83zm11144.98 0l3119.92 0 5.93 -17385.83 -3125.85 0 0 17385.83zm23079.9 -49484.15l0.64 3409.42 -4510.49 -3.77c-223.42,-280.23 -110.75,-3283.3 -86.39,-3555.65l3538.5 -26.52c996.65,-1.01 944.43,-122.24 1057.74,176.52zm-50941.69 35264.43l-2439.58 44.81 0.24 -35455.34 5441.27 -10.21 0 -8779.49 13603.73 -23.65 0 8803.58 5424.42 1.28 17.28 26723.25 -2533.82 18.09 -0.64 -23175.9 -2880.02 0 -27.53 23154.3 -2814.72 25.84 -0.61 -23180.14 -2874.5 0 -32.88 23133.71 -2064.03 42.25 -0.71 -23175.96 -2878.64 0c-109.71,909.69 -33.09,19186.95 -28.54,22000.16 0.37,237.71 27.09,760.23 -14.56,965.42 -74.13,365.27 -182.32,117.66 -177.3,903.29 16.98,2665.56 4.04,5335.03 4.04,8001.1l-2815.03 27.43 -0.44 -31897.4 -2869.44 0 -38.01 31853.57z"/>
	</g>
</svg>
