<svg 
	xmlns="http://www.w3.org/2000/svg" xml:space="preserve" 
	version="1.1" 
	style="
		shape-rendering:geometricPrecision; 
		text-rendering:geometricPrecision; 
		image-rendering:optimizeQuality; 
		fill-rule:evenodd; 
		clip-rule:evenodd
	"
	viewBox="0 0 25084.72 17683.08"
	xmlns:xlink="http://www.w3.org/1999/xlink"
	xmlns:xodm="http://www.corel.com/coreldraw/odm/2003"
>
	<g id="Camada_x0020_1">
		<metadata id="CorelCorpID_0Corel-Layer"/>
		<path d="M20007.63 12997.65c109.29,-67.37 214.92,-170.96 341.43,-207.75l326.52 203.72 -164.97 403.24 -341.42 -5.02 -161.56 -394.19zm-8066.58 -2751.45c0,-41.49 11.44,-33.04 -26.65,-32.77zm-158.77 -158.78c0.26,-37.08 8.72,-27.6 -29.91,-23.27zm-33 -19.91l-29.56 -23.12zm-77.66 -80.98l29.26 -28.36c140.84,10.24 313.7,64.2 474.3,84.37 611.57,76.85 945.61,-18.64 1511.65,-129.64 -36.11,105.16 -51.88,84.8 -124.88,156.66 -65.78,64.74 -77.21,73.4 -139.85,125.29 -177.87,147.35 -615.15,576.3 -793.86,703.88 -193.76,-170.99 -422.25,-381.19 -601.07,-573.37zm-4369.69 -2988.79c-7.66,-4.35 -26.42,-21.14 -29.53,-24.26l-26.63 -29.03c0,-174.16 21.08,-250 -34.09,-357.51 -51.7,-374.95 -292.01,-307.09 -579.38,-431.51 -320.17,-138.62 -271.63,-330.93 -495.73,-484.03 -455.68,-311.29 -721.72,149.51 -1339.98,439.95 -1217.88,572.14 -1873.16,-2.28 -2476.14,328.26 -182.71,100.16 -397.13,301.68 -477.1,504.09l-287.88 33.95c0,-1094.54 250.56,-1669.26 776.54,-2301.04 181.55,-218.08 555.42,-475.05 901.94,-632.15 1096.58,-497.13 2625.34,-223.28 3414.04,665.12 549.07,618.45 749.16,1200.24 749.12,2290.08l-95.18 -1.92zm445.19 -2892.49c-47.87,94.5 -26.76,276.54 -26.76,404.7 0.01,79.94 28.46,324.96 -31.66,376.51 -75.03,-210.81 -300.75,-486.06 -429.26,-628.7 -948.95,-1053.3 -2464.01,-1471.56 -3831.85,-1077.74 -588.17,169.35 -966.85,402.88 -1344.09,719.33 -674.97,566.21 -1256.77,1572.19 -1255.76,2912.79 0.59,783.76 33.55,374.01 -194.09,824.72 -297.16,588.38 28.15,1575.89 1262.72,1604.81 139.33,557.55 714.98,1231.85 1102.17,1394.21l-3.96 205.23c-150.43,54.99 -267.39,152.31 -409.33,229.57 -468.41,254.96 -1662.27,411.07 -2149.98,946.23 -201.62,221.23 -334.44,429.7 -411.26,806.24 -440.21,2157.83 -254.59,2465.1 -254.59,4600.26l701.11 0c3.25,-632.63 4.3,-1272.14 -6.82,-1905.26 -18.39,-1047.4 -16.3,-764.29 140.98,-1744.53 84.83,-528.68 121.33,-1173.88 522.37,-1383.99 143.77,-75.32 1272.9,-466.24 1409.27,-480.27 52.01,209.48 212.57,611.39 303.26,815.66 130.13,293.09 312.68,396.47 697.42,414.76 38.37,132.97 141.05,304.71 154.54,424.02l-78.49 1664.08c-36.6,731.49 -75.38,1461.92 -109.14,2195.53l750.68 0 79.3 -3547.12c25.1,-15.32 4.98,-14.27 54.89,-23.86l234.71 4.99 0.2 402.3 47.86 3163.69 747.37 0c0,-995.54 -79.28,-2306.89 -115.94,-3361.72 -4.82,-138.93 -31.38,-425.74 -9.15,-548.07 18.71,-102.97 112.27,-285.39 149.99,-403.62 369.88,23.23 586.38,-137.97 691.99,-393.73 70.52,-170.76 218.89,-651.74 257.15,-839.98l448.48 175.33c-150.57,1287.65 -549.24,4196.42 -315.89,5371.79l686.15 0c-128.9,-597.81 -80.83,-1609.03 -59,-2249.71 26.53,-778.34 150.16,-1378.61 279.98,-2114.75 138.63,-786.06 89.61,-1364.12 697.29,-1657.43 251.04,-121.16 600.6,-214.45 877.31,-313.22 273.42,-97.6 611.52,-237.73 883.82,-310.17 351.4,479.2 151.07,1713.96 1223.89,1551.31 136.7,623.12 261.21,216.52 214.02,1133.31 -61.74,1199.66 -183.11,2853.16 -194.09,3960.66l747.36 0 139.99 -4148.3 491.88 0.3 175.4 4148 749.02 0c-23.95,-873.39 -95.3,-1769.97 -144.84,-2645.62 -16.01,-283.05 -146.44,-1739.32 -60.46,-1950.89 63.15,-155.37 163.08,-371.47 197.11,-523.93 517.72,73.08 728.83,-137.71 873.25,-522.7 84.78,-225.99 294.96,-883.62 403.56,-1031.92l1786.98 627.79c610.7,267.59 646.39,958.55 751.21,1656.8 140.91,938.71 242.37,1216.6 210.55,2194.95 -20.23,621.95 -47.94,1639.16 -196.78,2195.52l843.37 0c82.71,-908.84 83.05,-1906.81 99.57,-2831.48 14.07,-787.59 -281.6,-1774.4 -383.46,-2553.53l336.92 -97.6c34.99,178.2 182.4,656.55 254.76,826.69 112.33,264.14 314.34,417.54 689.58,397.09 189.6,600.67 173.26,143.22 137.41,977.3 -41.63,968.45 -66.74,2417.09 -143.94,3281.53l753.99 0 46.21 -3256.04 6.53 -313.45 231.82 -3.16c73.64,25.8 24.65,-20.1 54.23,45.51l104.64 3527.14 750.68 0c-34.47,-749.05 -73.5,-1484.68 -109.82,-2222.06 -18.33,-372.1 -36.37,-740.51 -54.92,-1111.97 -45.75,-916.33 -33.61,-403.32 131.65,-976.06 412.59,5.16 569.66,-127.73 697.53,-414.25 91.7,-205.47 250.5,-610.1 301.49,-812.85 244.38,54.14 582,199.7 832.17,289.26 350.51,125.48 499.97,122.07 728.95,356.39 217.15,222.2 156,569.74 558.92,557.76 351.54,-10.45 406.89,-373.97 267.98,-669.75 -297.03,-632.47 -559.99,-664.01 -1280.37,-916.79 -273.22,-95.87 -549.89,-189.74 -826.68,-284.82 -517.84,-177.89 -581.87,-299.7 -739.87,-349.04l-0.9 -233.36c326.39,-130.96 760.57,-625.18 937.68,-968.11 75.35,-145.87 147.87,-385.51 213.45,-401.28 635.94,0 1105.8,-329.77 1254.81,-828.7 213.56,-715.05 -239.46,-880.17 -237.37,-1226.89 1.01,-168.25 1.06,-336.32 1.37,-504.59 2.03,-1102.46 -477.38,-2236.33 -1300.31,-2840.5 -406.68,-298.58 -779.07,-525.86 -1380.66,-684.88 -1101.44,-291.14 -2384.44,-71.15 -3254.57,619.85 -295.46,234.63 -825.92,806.99 -923.72,1142.07 -33.4,-43.11 -33.37,-38.17 -35.4,-140.56 -0.82,-41.35 1.97,-90.82 2.13,-133.56 0.78,-204.04 30.87,-679.45 -32.42,-784.36 23.75,-519.67 -260.86,-1337.98 -462.26,-1738.59 -374.46,-744.86 -937.74,-1323.34 -1594.02,-1713.95 -1320.38,-785.86 -2978.05,-927.22 -4401.23,-293.36 -961.53,428.24 -1764.15,1221.47 -2181.58,2210.47 -178.4,422.68 -454.91,1233.72 -406.38,1756.32zm14521.58 13318.15l723.8 0c0,-617.45 0,-1234.89 0,-1852.34 0,-288.31 50.71,-1171.21 -73.94,-1330.62 -149.63,-191.35 -652.5,-371.65 -649.96,430.9l0.1 2752.06zm-20715.82 0l723.8 0 0.03 -2752.05c0.43,-314.38 -0.13,-584.48 -350.97,-586.38 -376.72,-2.05 -373.76,364.88 -373.04,559.87l0.18 2778.56zm22392.56 0l805.92 0c53.56,-604.43 60.44,-1294.58 52.66,-1905.26 -6,-470.78 139.41,-1523.53 -464.31,-1463.17 -407.69,40.77 -293.16,524.05 -286.22,615.34 22.06,290.32 -0.03,657.2 -7.21,953.67 -14.21,587.24 -24.02,1231.71 -100.84,1799.42zm-15292.34 0l723.73 0 0 -3016.67c0.16,-343.25 18.54,-658.05 -359.25,-658.85 -362.71,-0.77 -364.82,298 -364.5,632.38l0.02 3043.14zm6487.65 0l751.54 0 0.01 -3016.67c0.29,-342.74 -5.64,-641.42 -366.04,-658.85 -404.49,-19.56 -386,402.7 -385.56,605.86l0.05 3069.66zm-10965.54 -4690.41c127.48,-55.59 213.21,-156.96 352.72,-199.83l311.64 207.32 -164.68 394.97 -340.41 0.32 -159.27 -402.78zm7549.14 -813.69c73.53,-75.79 453.43,-347.34 548.34,-390.4 93.01,42.19 478.03,316.8 551.39,392.08l-273.24 622.19 -587.42 1.03 -239.07 -624.9zm7241.58 -390.4c53.41,43.54 472.94,434.88 499.56,496.25 -89.63,69.43 -326.97,220.68 -429.69,261.68l-213.73 -697.57 143.86 -60.36zm-13886.02 469.79c37.97,-87.54 62.91,-86.96 149.35,-163.42 366.79,-324.47 245.38,-366.23 489.15,-286.44 -5.5,115.26 -166.07,654.99 -219.98,732.75 -77.43,-30.78 -334.74,-213.16 -418.52,-282.89zm15584.56 31.54c58.97,-94.47 516.69,-493.74 579.87,-531.24l128.08 69.67c-33.1,129.01 -244.02,672.2 -314.33,742.7 -123,-75.27 -280.76,-195.51 -393.62,-281.13zm-16757.08 1.66c-128.47,83.99 -283.64,201.29 -420.08,280.3l-48.52 -80.11c-13.11,-28.5 -24.95,-64.66 -36.1,-95.69l-203.64 -566.76 129.49 -68.02c88.68,44.2 523.89,442.75 578.85,530.28zm15947.9 -698.23l-31.96 -32.08c-36.98,2.51 -28.31,11.49 -28.05,-24.73l-26.47 -26.47 -26.46 -26.46 -31.64 -21.67 -32.87 -19.79 -27.96 -24.84 -26.46 -26.46 -26.46 -26.47 -31.64 -21.67c-48.34,-32.87 -17.96,58.88 -52.56,-77.49l104.68 36.81c455.14,24.99 602.88,12.75 1043.82,-44.34 -49.24,60.58 -86.3,82.75 -150.67,136.81l-433.15 407.49c-63.36,-44.21 -177.04,-141.33 -222.15,-208.64zm-15971.15 -335.66c458.87,59.41 650.36,47.25 1111.18,29.36l-527.36 514.94 -583.82 -544.3zm8988.85 48.06c38.62,-72.73 35.93,-58.09 103.63,-116.49l755.26 -687.29 292.27 197.85 -425.13 1125.32c-172.55,-130.04 -609.05,-402.33 -726.03,-519.39zm-2288.1 -582.17c82.1,-81.49 212.17,-146.84 305.13,-191.9 98.23,61.66 305.77,277.17 406.94,373.7 115.14,109.86 344.98,274.45 403.53,415.4 -155.53,54.28 -260.35,148.03 -404.63,251.1 -128.21,91.59 -235.21,168.18 -362.45,252l-348.52 -1100.3zm-6938.81 -3380.6c909.04,0 1480.17,-309.65 2136.79,-735.97 131.1,142.41 133.98,173.65 309.06,294.56 131.34,90.71 240.57,154.19 418.69,193.4 0,816.22 110.78,1870.96 -257.22,2505.06 -977.08,1683.59 -3784.91,1105.57 -3784.91,-940.49l0 -899.7c0,-653.28 595.03,-416.86 1177.59,-416.86zm3585.57 598.77c534.73,80.83 653.84,697.36 0,823.75l0 -823.75zm15566.3 -1.65c595.41,91.95 655.29,685.63 0,827.06l0 -827.06zm-5484.2 832.03c-595.07,-67.43 -622.28,-756.72 0,-830.38l0 830.38zm-15592.76 -4.97c-579.72,-79.64 -593.21,-741.44 0,-827.06l0 827.06zm17537.68 -1397.72c723.07,0 1321.95,-228.32 1904.97,-588.87 76.79,-47.49 127.18,-92.83 211.99,-140.43 126.85,104.02 290.27,385.41 726.09,481.29 3.35,743.46 50.02,1902.06 -273.89,2467.11 -349.81,610.22 -987.57,1002.84 -1722.38,1002.84 -768.21,0 -1208.1,-272.59 -1582.37,-693.84 -392.28,-441.51 -488.3,-946.7 -488.3,-1661.39 0,-292.7 -68.71,-848.43 307.8,-915.04l916.09 48.33zm-13176.74 3487.45c418.56,-283.6 883.9,-836.14 1002.56,-1329.07 272.61,-5.91 543.34,-53.04 743.27,-179.69 165.95,-105.12 362.1,-288.41 457.83,-468.27 116.99,-219.79 175.2,-466.68 116.69,-741 -25.6,-119.99 -80.63,-231.74 -130.98,-320.46 -68.68,-121.04 -145.62,-141.19 -144.94,-288.53 398.61,97.17 410.97,177.95 913,130.65 415.56,1035.21 697.97,1341.74 1533.24,1893.76l0 273.01c-639.36,425.6 -1111.11,540.42 -1845.85,790.54 -291.28,99.16 -710.82,222.47 -966.68,357.09 -405.46,213.36 -462.54,359.21 -700.39,626.99 -378.41,-91.41 -729.65,-226.8 -1059.19,-427.09 -271.03,-164.72 37.35,-288.06 81.44,-317.93zm9420.8 -3226.15c554.02,25.36 583.77,-79.09 891.52,-130.55 -2.15,241.37 -554.4,656.68 -141.79,1386.64 216.77,383.49 588.94,624.43 1210.12,611.21 96.77,358.47 304.85,633.46 479.42,874.91 337.09,466.21 711.27,472.24 681.69,668.18 -12.08,80.03 -399.04,289.44 -491.89,328.71 -151.14,63.92 -455.19,170.89 -619.62,205.61 -150.06,-124.96 -286.24,-412.74 -715.4,-611.44l-1910.43 -684.09c-440.16,-161.15 -144.8,-36.26 -439.3,-221.66 -119.28,-75.09 -290.36,-157.99 -395.49,-232.63l7.29 -352.4c127.71,-114.49 344.24,-244.13 476.24,-351.4 410.51,-333.6 792.43,-938.9 967.64,-1491.09zm-4341.43 -2702.44c515.21,0 1151.23,-120.94 1585.71,-292.94 840.39,-332.69 970.4,-562.03 1192.8,-667.88 177.41,147.23 158.99,320.84 692.91,585.81 84.25,41.81 240.42,55.22 286.29,136.95l0 1984.65c0,1995.03 -2140.87,3136.17 -3847.64,2313.69 -1164.39,-561.11 -1471.43,-1597.18 -1471.43,-2816.46 0,-558.79 -105.25,-1124.1 414.33,-1279.87 162.03,-48.57 794.14,36.05 1147.03,36.05zm4505.07 764.18c410.13,-60.14 784.68,252.7 774.16,638.8 -9.16,336.33 -398.76,665.45 -773.58,596.83l-0.58 -1235.63zm-6792.21 1235.63c-397.7,31.99 -784.79,-246.71 -777.07,-622.1 7.14,-346.98 389.64,-663.72 782.22,-613.53l-5.15 1235.63zm8274.09 300.93c0,-531.57 22.52,-864.74 192.03,-1334.47 612.15,-1696.28 2510.78,-2288.02 3998.21,-1590.74 1210.86,567.63 1651.53,1511.6 1651.09,2935.64l-165.16 -25.28c0,-750.75 -151.22,-658.86 -586.59,-819.85 -368.4,-136.22 -335.37,-585.95 -809.27,-585.95 -394.9,0 -457.81,264.5 -1006.03,522.28 -1284.86,604.16 -1873.77,4.47 -2498.61,359.7 -163.21,92.79 -258.71,183.03 -358.06,303.07 -177.16,214.06 -39.3,223.18 -417.61,235.6zm-8719.17 -2247.61c68.63,-988.08 72.11,-1559.75 564.4,-2432.35 964.89,-1710.31 3109.76,-2270.26 4941.47,-1452.02 437.29,195.34 945.24,575.17 1167.32,842.7 831.47,1001.6 954.35,1656.88 954.86,3039.87l-417.22 -57.76c0,-292.29 46.19,-611.07 -108.64,-817 -176.81,-235.15 -390.43,-131.1 -661.61,-264.42 -301.2,-148.07 -255.57,-266.18 -437.34,-489.93 -118.9,-146.38 -411.54,-266.4 -682.07,-172.96 -315.61,109.02 -1025.8,1003.48 -2641.88,1003.48 -593.88,0 -1687.75,-365.36 -2169.81,772.9 -278.6,-11.58 -188.51,-9.88 -509.48,27.49z"/>
	</g>
</svg>
