<svg 
	xmlns="http://www.w3.org/2000/svg" 
	xml:space="preserve" 
	version="1.1" 
	style="
		shape-rendering:geometricPrecision; 
		text-rendering:geometricPrecision; 
		image-rendering:optimizeQuality; 
		fill-rule:evenodd; 
		clip-rule:evenodd
	"
	viewBox="0 0 17063.17 12426.58"
	xmlns:xlink="http://www.w3.org/1999/xlink"
	xmlns:xodm="http://www.corel.com/coreldraw/odm/2003"
>
	<g id="Camada_x0020_1">
		<metadata id="CorelCorpID_0Corel-Layer"/>
		<path d="M12337.85 11236.12c-77.03,-395.2 500.95,-496.76 579.14,-126.69 38.06,180.14 -79.25,325.5 -224.45,353.68 -174.63,33.88 -330.02,-100.41 -354.69,-226.99zm3456.23 -2775.3c62.7,16.25 207.19,121.32 242.19,152.76 280.21,251.7 268.01,615.85 268.01,921.88 -0.01,225.86 15.9,1462.32 -9.37,1577.92l-812.62 0c-48.22,-220.2 -3.11,-1196.65 27.15,-1445.71 32.25,-265.39 174.17,-1022.77 284.64,-1206.86zm-6320.86 -4.72c48.87,180.56 121.82,360.39 168.65,562.15 48.11,207.31 85.55,420.92 109.91,644.89 26.91,247.48 71.49,1232.76 23.95,1450.24l-822.06 0c-38.15,-166.05 -4.63,-1312.74 -4.65,-1577.92 -0.01,-262.43 -11.4,-480.45 102.14,-696.54 82.05,-156.15 242.23,-325.85 422.07,-382.83zm3889.23 1882.44l697.91 0c53.97,170.17 18.82,1430.12 18.82,1710.12l-724.98 -0.17c42.48,-66.85 90.65,-91.2 144.92,-158.89 144.02,-179.66 239.45,-442.23 240.8,-691.18 2.44,-450.57 -204.24,-639.95 -377.45,-859.88zm-1458.7 1708.94l-725.06 1.18 0.08 -1728.92 710.88 0c-47.06,109.91 -639.38,585.32 -251.1,1367.62 112.07,225.79 195.9,252.69 265.2,360.12zm733.41 -3345.74c67.32,-32.54 771.14,-759.28 858.68,-855.14 -126.93,508.49 -315.5,1122.3 -465.54,1646.25 -36.3,126.76 -111.25,505.65 -186.4,505.65 -550.99,0 -439.94,51.3 -523.13,-240.06l-230.67 -808.65c-82.5,-298.27 -266.17,-812.2 -299.78,-1098.18l846.84 850.14zm-8793.75 -914.17c102.12,-149.65 117.01,-308.93 117.01,-525.48 281.69,77.43 503.95,171.25 836.67,171.25 657.11,0 574.39,-80.01 1010.27,-170.07 0,263.33 15.25,328.42 115.83,530.2 -245.03,214.53 -572.06,437.78 -1051.56,436.31 -449.89,-1.38 -826.43,-217.15 -1028.22,-442.21zm9498.81 -606.96c0,202.25 -24.4,168.68 -134.56,278.62 -104.79,104.57 -496.67,531.44 -595.22,566.89l-571.61 -576.33c-103.91,-103.54 -129.83,-74.89 -129.83,-268 755.8,135.91 609.69,180.7 1431.22,-1.18zm-4023.08 11.72c166.73,-185.88 353.19,-416.01 499.96,-702.07 172.92,-337 187.74,-539.91 287.3,-918.28 133.55,49.29 205.17,98.79 371.95,133.46 103.12,287.3 207.41,516.79 362.54,714.81 192.88,246.2 286.56,292.82 472,452.88 90.22,77.87 64.13,42.89 64.13,346.36 -242.15,60.62 -816.79,331.5 -1031.69,303.54 -273.81,-35.62 -857.72,-196.21 -1026.19,-330.69zm5456.98 -1508.15c184.34,-30.46 237.73,-68.32 374.24,-131.09 183.18,786.75 266.6,1014.43 787.26,1620.35 -178.02,154.51 -728.9,309.96 -1022.02,349.2 -168.02,22.49 -385.85,-86.33 -541.74,-138.21 -554.64,-184.63 -505.97,-73.03 -490.59,-496.72 157.22,-81.06 445.23,-373.2 542.75,-515.87 155.64,-227.7 242.12,-386.51 350.09,-687.66zm-3857.26 -2148.18l3420.22 0 0 1502.17c0,912.86 -758.82,1719.55 -1662.87,1719.55l-94.48 0c-881.64,0 -1662.87,-797.69 -1662.87,-1681.76l0 -1539.96zm-8011.98 80.31l3953.95 0 0 1384.07c0,290.24 -84.6,565.29 -194.72,792.01 -147.41,303.49 -308.02,504.2 -537.32,673.31 -49.2,36.28 -81.88,72.37 -136.91,107.66 -1454.73,932.96 -3085,-179.94 -3085,-1572.98l0 -1384.07zm7471 1458.47c-135.92,-63.78 -231.59,-225.22 -236.55,-433.35 -4.85,-203.48 111.9,-355.99 237.05,-414.56l1.86 74.35 0.47 699.17 -2.83 74.39zm4522.26 -845.61c302.77,158.11 305.33,702.46 -3.31,843.24l3.31 -843.24zm58.98 -587.07c-90.7,-30.04 -96.19,-5.69 -79.16,-105.38l230.61 -0.91 -1.46 174.9c-52.87,-28.41 -86.16,-47.48 -149.98,-68.62zm-4838.62 -106.1l240.85 0c-5.03,121.15 12.03,70.08 -107.49,118.87 -47.2,19.27 -84.09,39.52 -129.67,55.92l-3.61 -70.94 -0.08 -103.85zm4407.69 -1332.19l-4.67 533.54c75.13,-6.59 430.52,-19.82 507.76,11.39 187.57,4.63 335.15,114.24 394.33,234.46l-5610.9 0c155.99,-275.44 486.99,-240.84 858.51,-240.84 359.03,0 718.05,0 1077.08,0 526.98,0 1701.22,23.38 2148.25,-2.34l1.27 -536.14 -3474.54 -0.15c57.93,-215.3 209.32,-479.37 319.8,-646.14 787.03,-1188.15 2444.4,-1237.15 3323.63,-500.68 319.57,267.68 649.73,706.83 762.77,1146.82l-303.29 0.09zm-12125.68 897.58c8.49,-59.28 299.19,-480.24 356.74,-572.88 207.77,-14.95 842.47,16.65 943.52,-20.46 57.53,-21.13 141.28,-95.17 162.16,-160.19 142.62,-443.88 -585.39,-342.45 -915.76,-343.2l33.3 -216.65 3781.24 0.04 26.42 217.35 -2201.52 -0.27c-220.74,-0.96 -443.33,66.86 -382.56,316.79 54.77,225.26 287.51,203.06 533.77,203.04l2191.96 0c76.31,14.52 387.84,549.18 391,576.42l24.71 0c-1648.32,0 -3296.65,0 -4944.97,0zm670.82 -1790.42c0.78,-121.17 60.8,-349.35 86.49,-479.25 36.48,-184.47 72.04,-295.5 276.15,-295.5l2872.22 0c207.56,0 244.84,108.88 275.05,295 24.29,149.67 65.43,331.27 75.8,479.63l-3585.71 0.11zm-3071.82 11115.6l538.7 0 0 -774.74 1289.59 0 0 774.74 500.74 0c0,-415.65 -1.42,-831.54 0.2,-1247.16 2.26,-575.17 -402.97,-398.83 -466.28,-305.93 -51.14,75.03 -40.57,156.54 -62.93,258.79l-1256.68 0c-63.97,-191.52 -22.97,-1233.4 30.67,-1434.63 51.77,-194.22 127.53,-359.71 229.25,-506.62 405.39,-585.49 795.76,-630.32 1446.01,-803.61l1192.2 -312.78c108.96,163.48 363.51,326.82 583.85,435.98 686.77,340.23 1382.47,227.17 2001.05,-181.13 86.55,-57.12 230.47,-180.29 278.02,-251.31 100.17,4.87 948.82,232.51 1126.54,276.84 188.06,46.92 374.36,84.88 559.47,139.11 169.03,49.53 379.89,183.29 510.6,179.29 -41.95,205.39 -96.75,301.81 -108.4,550.6 -25.52,545.48 7.07,1384.34 -3.8,1981.39 -314.83,172.02 -181.29,834.88 -159.43,1221.18l519.63 0 0 -770.02 1034.57 -4.96 0 774.98 557.52 0c0,-1013.99 65.44,-2296.01 -111.41,-3261.38 -62.63,-341.86 -166.57,-592.67 -245.25,-901.61l1310.96 -430.58 594.7 2084.18 -160.21 0.91 0 -198.32 -533.82 0 0.01 195.97c-529.61,192.11 -396.83,515.46 -396.83,1244.79 0,436.76 -85.57,882.38 137.21,1114.45 104.24,108.58 130.02,83.73 260.71,151.59l2879.45 0c103.64,-53.82 356.6,-123.44 393.47,-416.23l3.28 -1663.21c-23.47,-351.24 -275.92,-379.73 -392.14,-433.76l-4 -193.6 -538.04 0 0 192.43 -152.24 7.13 590.31 -2083.05 1309.34 432.06c-75.91,293.13 -182.03,547.71 -242.27,876.78 -179.79,982.13 -111.55,2254.67 -111.55,3281.46l538.54 0 0 -774.74 1034.57 0.48 0 774.26 517.28 0c12.78,-190.02 76.3,-838.85 5.71,-1009.58 -55.99,-135.45 -136.02,-192.88 -153.2,-222.22 -38.68,-66.1 -15.5,-1266.23 -15.5,-1451.45 0,-672.89 23.14,-1177.26 -570.96,-1649.16 -75.36,-59.85 -140.73,-96.63 -221.43,-137.88 -80.98,-41.39 -206.45,-76.28 -263.44,-112.02 163.93,-44.15 410.13,-188.55 539.65,-270.41 64.67,-40.88 419.28,-289.61 470.21,-370.88 -447.28,-314.47 -836.25,-688.56 -1054.77,-1356.87 -178.24,-545.13 -108.52,-1686.55 -108.52,-2328.99 125.31,0 375.8,25.74 395.22,-34.21 14.1,-43.52 -6.03,-363.97 -15.47,-423.05 -65.86,-411.62 -278.51,-584.15 -569.96,-769.48 -87.43,-55.6 -104.45,-210.84 -141.53,-312.28 -80,-218.84 -184.9,-435.14 -293.38,-613.7 -413.45,-680.55 -1094.34,-1297.14 -2228.6,-1359.75 -533.48,-29.45 -1067.8,82.69 -1475.75,298.57 -695.18,367.87 -1139.83,993.67 -1411.41,1724.81 -91.12,245.29 -39.64,250.78 -143.38,309.49 -123.52,69.89 -157.5,92.54 -250.54,184.56 -268.9,265.93 -380.38,629.23 -320.78,1037.56l389.81 0c-0.16,1246.72 180.3,2232.57 -529.7,3111.94 -141.68,175.47 -437.33,452.4 -637.14,568.11l18.53 27.56c16.96,20.4 4.79,9.38 29.96,33.26l169.08 132.46c374.21,305.82 601.06,343.41 783.93,458.55 -121.17,83.54 -541.06,213.18 -696.8,488.94 -126.89,-102.64 13.5,-52.92 -271,-197.15 -284.95,-144.45 -1459.21,-412.76 -1848.25,-513.97 -146.25,-38.05 -253.12,-53.19 -301.12,-170.62 -40.07,-98.02 -19.52,-354.13 -19.52,-476.42 10.75,-45.07 241.36,-218.87 290.05,-262.97 71.89,-65.12 186.89,-201.6 254.07,-293.25 652.05,-889.65 509.26,-1671.9 509.26,-2819.05 100.35,-27.69 504.4,51.42 587.4,-316.88 57.6,-255.59 -149.08,-476.18 -253.17,-638.49 -446.01,-695.47 -298.86,-301.28 -481.66,-1332.76 -100.23,-565.56 -93.62,-1071.05 -551.38,-1262.48 -254.13,-106.28 -1404.59,-56.18 -1767.13,-56.18 -367.24,0 -1500.26,-51.69 -1762.64,60.43 -456.88,195.25 -453.66,703.05 -553.2,1261.21 -149.02,835.63 -32.27,670.19 -481.28,1333.32 -112.61,166.3 -310.24,373.88 -252.95,631.81 31.04,139.79 90.32,212.69 190.68,262.5 163.91,81.34 245.08,16.6 393.44,57.53 0,1315.04 -158.46,2352.32 919.66,3258.74 63.47,53.36 116.94,64.87 157.33,135.43 0,555.05 73.3,551.03 -428.8,675.56 -295.61,73.31 -595.04,150.97 -887.95,226.94 -713.57,185.07 -1102.81,259.11 -1536.02,675.98 -414.39,398.75 -626.49,969.18 -629.03,1576.42 -3.1,743.2 0.18,1487.22 0.18,2230.51z"/>
	</g>
</svg>
