<svg 
xmlns="http://www.w3.org/2000/svg" 
style="
	shape-rendering:geometricPrecision; 
	text-rendering:geometricPrecision; 
	image-rendering:optimizeQuality; 
	fill-rule:evenodd; 
	clip-rule:evenodd
"
viewBox="0 0 33344.83 31363.3"
>
	<path d="M4441.41 2254.88l4509.75 0c58.92,220.61 1030.55,1442.1 1229.93,1708.23 422.36,563.68 822.76,1096.79 1259.18,1679l13499.71 18068.57c120.88,168.28 197.6,229.35 328.89,422.75 395.92,583.28 830.54,1122.36 1252.85,1685.3 430.34,573.65 821.63,1095.28 1259.18,1679l1259.16 1679 -4509.75 0 -5623.7 -7563.92c-1042.48,-1277.66 -3342.07,-4457.37 -4420.75,-5897.02 -1681.23,-2243.82 -3332.34,-4464.5 -5027.15,-6725.55l-5017.29 -6735.39zm24628.05 -2254.88l2772.11 0c-91.71,343.51 -926.21,1070.91 -1199.12,1397.4l-664.24 702.36c-162.2,168.49 -185.98,246.32 -339.42,412.21 -1021.35,1104.23 -2456.63,2532.91 -3420.4,3685.87l-6042.87 6529.78c-151.85,156.37 -243.58,217.88 -359.95,391.66 261.09,389.92 590.19,787.02 879.12,1170.76l12103.8 16184.66c68.61,95.51 118.13,181.24 194.12,284.18 140.74,190.73 330.38,342.1 352.21,604.41l-9976.11 0c-248.16,-468.98 -4245.36,-5730.69 -4539.11,-6120.3 -123.34,-163.59 -166.52,-229.31 -284.14,-399.16 -124.25,-179.42 -183.79,-227.08 -302.25,-381.03 -189.66,-246.47 -355.5,-506.62 -545.04,-753.24l-2284.93 -3044.79c-393.02,-524.32 -780.11,-1006.45 -1132.35,-1532.48l-2431.03 2557.02c-448.26,580.55 -1965.16,2067.37 -2400.23,2587.84l-5982.9 6453.08c-191.95,191 -209.81,266.98 -370.47,449.5 -106.06,120.48 -167.66,167.04 -258.54,183.56l-2837.72 0 770.09 -938.16c178.66,-185.5 222.53,-294.33 407.25,-481.03l2017.65 -2150.45c195.36,-192.82 240.43,-285.91 409.91,-478.38l1195.03 -1264.84c95.39,-94.17 146.27,-140.35 236.79,-241.51 53.21,-59.48 53.44,-62 94.39,-110.62 9.12,-10.81 22.06,-26.32 31.13,-37.19l3702.84 -4018.41c711.06,-733.87 3699.6,-4052.87 4049.21,-4286.99l-2854.3 -3842.02c-157.55,-189.51 -228.54,-313.7 -375.84,-512.43l-8073.59 -10785.37c-288.87,-383.14 -1512.76,-1861.87 -1542.22,-2215.91l9976.11 0c76.37,286.02 1287.69,1818.03 1550.34,2139.46 897.5,1098.36 2243.44,3005.41 3154.5,4225.1l1056.21 1403.63c291.85,355.32 2503.04,3236.12 2575.15,3506.18 343.39,-91.67 1215.25,-1239.04 1553.12,-1590.04 148.54,-154.29 268.75,-252.63 412.21,-407.74 153.44,-165.88 177.23,-243.7 339.4,-412.21 251.16,-260.92 520.45,-476.03 741.25,-762l942.05 -1039.54c74.01,-86.56 85.77,-100.35 162.29,-179.34l3349.74 -3619.88c285.73,-310.7 486.16,-473.63 757.64,-813.94l1119.94 -1203.28c825.6,-816.04 977.28,-1134.93 1311.17,-1246.42z"/>
</svg>
